<svg xmlns="http://www.w3.org/2000/svg" viewBox="0 0 154.11 57.64"><defs><style>.cls-1{fill:#c2c5ca;}</style></defs><title>bcpodcast-logo</title><g id="Layer_2" data-name="Layer 2"><g id="Layer_1-2" data-name="Layer 1"><g id="Layer_1-2-2" data-name="Layer 1-2"><path id="Path_45" data-name="Path 45" class="cls-1" d="M142.83,20.11A11.54,11.54,0,0,1,138,28.7c-2.35,1.83-4.95,3.31-7.29,5.16a21.55,21.55,0,0,0-2.39,2.19c-.18.19-.44.47-.69.25s0-.59.16-.78A34.19,34.19,0,0,1,131,33.27c.24-.16.78-.26.54-.68s-.55,0-.81.11a56.22,56.22,0,0,1-16.86,3.42,32.34,32.34,0,0,1-9.73-1.28c-.74-.2-1.33-.76-2.1-.94-.43-.1-.36-.46-.2-.83.55-1.23,1.06-2.49,1.61-3.72a6,6,0,0,1,2.81-2.84c3.47-1.82,5.78-4.73,7.68-8,.66-1.13.63-1.21-.66-1.4-1.64-.26-3.28-.48-4.93-.68a7.92,7.92,0,0,1-2.43-.67,4.13,4.13,0,0,1-2.6-2.9,13.61,13.61,0,0,0-.84-2.5c-.36-.86,0-1.18.78-1.32,1.87-.34,3.73-.72,5.6-1,5-.8,10.09-1.71,15.16-2.29a17.33,17.33,0,0,1,11.25,2.73,16.73,16.73,0,0,1,6.87,7.92A9.62,9.62,0,0,1,142.83,20.11Zm-8.9,3.39c2-1.67,4-3.14,4.81-5.57a4.05,4.05,0,0,0-1.4-4.54,8.4,8.4,0,0,0-3.88-1.65,36.43,36.43,0,0,0-11.51.11c-.17,0-.43,0-.45.29a1.31,1.31,0,0,0,.87.15,7.26,7.26,0,0,1,3,.71c1.3.56,1.44.9.86,2.15-.45,1-.89,2-1.41,2.92-.37.68-.23.9.53,1a30.21,30.21,0,0,1,6.7,2c.95.42,1.89.92,1.84,2.44Zm-14.52,5.81a8.31,8.31,0,0,0,2.37-.37,31.25,31.25,0,0,0,10.79-4.54c.21-.15.6-.19.44-.65a4.21,4.21,0,0,0-2.28-2.52A46.53,46.53,0,0,0,125,19.29c-.6-.18-.7.16-.88.53-.66,1.37-1.31,2.74-2,4.11-.88,1.78-1.77,3.55-2.69,5.39Zm-3.18-16.5c-1.19.2-2.23.34-3.26.54a35.31,35.31,0,0,0-5,1.11c-.23.09-.58.1-.58.46s.28.35.49.45a3.46,3.46,0,0,0,.75.3c1.8.44,3.61.85,5.41,1.28a.52.52,0,0,0,.64-.34h0l1.62-3.27c.14-.29.15-.55-.13-.53ZM111.8,23c-1.73,1.74-3.64,3.25-5.36,4.95-.62.61-.5,1.1.36,1.26a20.07,20.07,0,0,0,5,.55l-.6-.28c-1.74-.72-1.79-.81-1.08-2.51.55-1.33,1.14-2.64,1.71-4Zm3.86-10.74A22.12,22.12,0,0,0,108,13c-.16,0-.38.11-.34.3s.35.29.58.25ZM114,22.94h-.31c-1.23,1.31-1.38,3-1.83,4.66-.07.28.22.32.4.17a1.68,1.68,0,0,0,.49-.63c.43-1.37.82-2.76,1.25-4.22Z"/><path id="Path_46" data-name="Path 46" class="cls-1" d="M49.08,22.74c1.12.26,2.07.44,3,.72,2.77.81,4.27,2.95,5.38,5.4a2,2,0,0,1-.72,2.28,8.13,8.13,0,0,1-3.08,1.71,52.18,52.18,0,0,1-10.44,2c-6.66.9-13.31.44-20,.17a13.76,13.76,0,0,1-5.61-1.27,2.57,2.57,0,0,1-1.29-3.39,2.62,2.62,0,0,1,.64-.87,1,1,0,0,1,1.22-.22,10,10,0,0,0,4.75.86c2.35.09,4.71,0,7.22,0A6.71,6.71,0,0,0,28,29.26c-2.81-1.2-2.87-1.27-1.9-4.21.9-2.63,2.55-4.85,3.9-7.24.5-.91,1-1.79,1.56-2.66-.31-.26-.55-.13-.77-.1A19.27,19.27,0,0,1,22,14.2a2.1,2.1,0,0,1-1.69-1.79,16.22,16.22,0,0,0-.63-2.56c-.27-.82,0-1.15.81-1.22,2.26-.2,4.51-.41,6.78-.58,3.85-.29,7.7-.58,11.55-.81,2.88-.16,5.82-.25,8.51.94a21.08,21.08,0,0,1,8,6.21,4.48,4.48,0,0,1,.9,3.16,2.56,2.56,0,0,1-1.07,2,15.52,15.52,0,0,1-5.65,2.91C49.41,22.46,49.34,22.55,49.08,22.74Zm-11,7.43c3-.18,5.89-.38,8.8-.82a15.41,15.41,0,0,0,5.21-1.61c.54-.29,1.18-.65,1.18-1.3s-.73-.91-1.27-1.15a13,13,0,0,0-4.64-1,67.62,67.62,0,0,0-9,.28c-.51,0-1,.12-1.41-.34s-.58-.17-.84.2c-.86,1.27-.78,2.95-1.84,4.14a8.31,8.31,0,0,0-.58.95c-.31.48-.22.64.36.63h4.06Zm1.14-11a1.76,1.76,0,0,0,.4.07,45,45,0,0,0,9.63-2.4,5.93,5.93,0,0,0,2.06-1.27,1,1,0,0,0,.23-1.39h0a1.11,1.11,0,0,0-.27-.26c-1.06-.89-2.39-1-3.76-1.35a.88.88,0,0,0,.5.61c.24.16.62.23.6.61,0,.2-.28.13-.42.19-.41.19-.55-.12-.77-.36s-.28-.74-.74-.78a27.34,27.34,0,0,0-3.38-.54c-4.91.1-9.79.6-14.68,1a16.17,16.17,0,0,0-1.7.24c-.31.07-.74.19-.72.59s.48.41.8.44a25.28,25.28,0,0,0,4.35-.14c.27,0,.59,0,.67-.34.24-1,1-.71,1.55-.54a8.73,8.73,0,0,0,4,.12c1.26-.21,2.52-.34,3.78-.5v.11L37.54,14c.92.4,1.8.79,2.64,1.23a1,1,0,0,1,.66,1.25s0,0,0,.06a1.18,1.18,0,0,1-.16.29c-.45.76-.91,1.5-1.43,2.37ZM30.33,21c.08-.25,0-.37-.14-.4a.55.55,0,0,0-.57.34c-.59,1-1.16,2-1.75,3a13.74,13.74,0,0,0-1,3,.49.49,0,0,0,.21.65h.07c.36.11.41-.22.52-.47.31-.69.75-1.33.35-2.17-.15-.3.06-.6.37-.84,1-.81,1.18-2.18,1.92-3.06ZM26.69,9.06a12.32,12.32,0,0,0,5.36-.48A23,23,0,0,0,26.69,9.06Z"/><path id="Path_47" data-name="Path 47" class="cls-1" d="M89.3,5.79a11.63,11.63,0,0,1,7,1.46c.55.32,1,.6.84,1.31s.27,2-.93,2.34a1.72,1.72,0,0,0-1.16,1.26c-.83,2.47-1.52,5-2.25,7.48a3.28,3.28,0,0,0,.2,1.78c.13.59.13,1.1-.64,1.21-.58.09-.48.6-.55,1-.66,3.7-1.3,7.4-2,11.1-.36,2-1.12,2.48-3.11,2.16a12.43,12.43,0,0,1-4.89-2.12C79,32.92,76.24,31,73.28,29.45a12.93,12.93,0,0,0-1.67-.72c-.83-.3-1.1.34-1.44.79s.18.41.4.52c1,.48,2.1.94,3.13,1.45.53.27,1.18.59,1.08,1.32s-.76.83-1.3,1c-1.57.44-3.14.84-4.71,1.26A9,9,0,0,0,66.2,36c-1.79,1.13-3.3.55-4.82-1.14-1.74-1.93-1.5-2.46.93-3.21a8,8,0,0,0,2.4-.77c.22-.15.53-.3.48-.61s-.44-.21-.67-.21a3.6,3.6,0,0,1-3.3-3.51c0-.5.33-.71.73-.85a51.54,51.54,0,0,1,7.62-2.12A5.1,5.1,0,0,0,72.48,22c2.07-2.24,4.08-4.53,6.15-6.76.55-.59.37-.73-.3-.84A11.94,11.94,0,0,1,76.67,14,3.6,3.6,0,0,1,74,11.27a16.11,16.11,0,0,0-.63-1.93C73,8.14,73,8,74.32,7.76c2.16-.39,4.33-.75,6.51-1.1A54.78,54.78,0,0,1,89.3,5.79Zm-5.59,9.38a2.33,2.33,0,0,0-1.26.7c-1.59,1.62-3.22,3.2-4.8,4.82-.38.4-1.24.79-1,1.23s1.1.14,1.68.06c1.72-.25,3.42-.56,4.86.83a3.74,3.74,0,0,0,.62.34c.3.19.51.14.59-.23a28,28,0,0,1,1.85-6c.26-.58,0-.85-.58-1s-1.45-.1-2-.74a4.34,4.34,0,0,1,2,.35c.36.07.74.25.86-.33.28-1.3.57-2.6.86-3.91a44.72,44.72,0,0,0-3.78,3.38c-.2.2.17.34,0,.53ZM72.14,28c2.7,1.34,5,3.23,7.63,4.65.38.21.79.38,1.18.57.71.33,1.14.19,1.3-.65.26-1.32.59-2.63.87-4,.17-.79.7-1.91.38-2.3-.5-.6-1.57,0-2.39.06a62.41,62.41,0,0,0-9,1.62Zm13.58-3.88q-1,3.31-1.59,6.71c0,.24-.19.62.13.71s.48-.34.51-.58c.23-2,1-3.79,1.26-5.74,0-.34.2-.74-.31-1.11Zm-4-12-.13-.22a26.2,26.2,0,0,0-3.62.89c-.26.1-.65.18-.47.61a3.05,3.05,0,0,0,2.42.46c.61-.57,1.2-1.16,1.8-1.75Zm-12.1,12.2L63.79,25.9c-.22.06-.57.06-.51.36s.42.28.68.23A20.2,20.2,0,0,0,69.08,25c.22-.11.54-.14.54-.67Z"/><path id="Path_48" data-name="Path 48" class="cls-1" d="M40.21,34.77a52.65,52.65,0,0,1,8.39,1,.77.77,0,0,1,.61.61.79.79,0,0,1-.37.58c-.18.15-.4.2-.51-.05-.6-1.26-1.78-1-2.82-1.09C45.21,35.8,40.46,35.3,40.21,34.77Z"/><path id="Path_49" data-name="Path 49" class="cls-1" d="M42.22,13c.16,0,.33-.12.46.06Z"/><g id="Group_11" data-name="Group 11"><path id="Path_50" data-name="Path 50" class="cls-1" d="M10.14.81H8.88V0h3.45V.81H11.07V4.34h-.93Z"/><path id="Path_51" data-name="Path 51" class="cls-1" d="M15.9,2.52H13.85V4.34h-.92V0h.92V1.7H15.9V0h.92V4.34H15.9Z"/><path id="Path_52" data-name="Path 52" class="cls-1" d="M17.67,0h3.07V.79H18.6v1h2.1v.79H18.6v1h2.14v.8H17.67Z"/></g><g id="Group_12" data-name="Group 12"><path id="Path_53" data-name="Path 53" class="cls-1" d="M91.59,46.49a3,3,0,0,0-3,3v.27A3,3,0,0,0,91.29,53h.34a3,3,0,0,0,3-3v-.25a3,3,0,0,0-2.7-3.27h-.08Z"/><path id="Path_54" data-name="Path 54" class="cls-1" d="M82,46.6H79.72v2.76H82a1.37,1.37,0,0,0,1.47-1.25V48a1.37,1.37,0,0,0-1.35-1.39H82Z"/><path id="Path_55" data-name="Path 55" class="cls-1" d="M102.28,46.64h-1.82V52.9h1.82a3,3,0,0,0,3.14-2.85v-.27a2.93,2.93,0,0,0-2.7-3.14h-.44Z"/><path id="Path_56" data-name="Path 56" class="cls-1" d="M29.4,46.6H27.17v2.76H29.4a1.38,1.38,0,0,0,1.5-1.25h0a.24.24,0,0,0,0-.12,1.38,1.38,0,0,0-1.37-1.39H29.4Z"/><path id="Path_57" data-name="Path 57" class="cls-1" d="M48.51,46.6H46.24v2.76h2.27A1.38,1.38,0,0,0,50,48.12h0V48a1.37,1.37,0,0,0-1.35-1.39h-.14Z"/><path id="Path_58" data-name="Path 58" class="cls-1" d="M66.61,46.49a3,3,0,0,0-3,3v.27A3,3,0,0,0,66.31,53h.33a3.05,3.05,0,0,0,3.06-3v-.25A3,3,0,0,0,67,46.52h-.08Z"/><path id="Path_59" data-name="Path 59" class="cls-1" d="M121.8,51.21h3.32l-1.65-4.6Z"/><path id="Path_60" data-name="Path 60" class="cls-1" d="M0,41.94v15.7H154.11V41.94ZM19.49,53.07a2.71,2.71,0,0,0,2.43-1.45l1.84.88A4.68,4.68,0,0,1,19.49,55a5.07,5.07,0,0,1-5.25-4.88v-.31a5.08,5.08,0,0,1,5-5.18h.32a4.63,4.63,0,0,1,4.27,2.45L22,48a2.75,2.75,0,0,0-2.43-1.46,3.11,3.11,0,0,0-3.07,3.14v.15a3.11,3.11,0,0,0,2.9,3.29Zm11.2,1.72-2-3.59H27.16v3.59H25v-10h4.68A3.12,3.12,0,0,1,33,47.65h0V48a2.87,2.87,0,0,1-2.19,3l2.25,3.82Zm8.65-4.1v4.1H37.21v-4.1l-3.86-5.92h2.43l2.5,4,2.46-4h2.43Zm9.45.51H46.24v3.59H44.1v-10h4.69a3.14,3.14,0,0,1,3.36,2.88,2,2,0,0,1,0,.35,3.11,3.11,0,0,1-3,3.2h-.33Zm12.06-4.55H57.94v8.14H55.79V46.65H52.86V44.77h8ZM66.6,55a5,5,0,0,1-5.22-4.77v-.06a2,2,0,0,1,0-.35,5,5,0,0,1,4.8-5.19h.42a5,5,0,0,1,5.24,4.75v.07a2.29,2.29,0,0,1,0,.37A5,5,0,0,1,67,55H66.6Zm15.67-3.8H79.72v3.59H77.58v-10h4.69a3.13,3.13,0,0,1,3.36,2.88V48a3.11,3.11,0,0,1-3,3.2H82.3ZM91.58,55a5,5,0,0,1-5.23-4.76v-.42a5,5,0,0,1,4.8-5.19h.43a5,5,0,0,1,5.24,4.75v.44A5,5,0,0,1,92,55h-.42Zm10.69-.18h-4v-10h4c3.14,0,5.32,2,5.32,5s-2.17,5-5.31,5Zm11.61-1.71a2.76,2.76,0,0,0,2.44-1.46l1.83.88A4.66,4.66,0,0,1,113.88,55a5.07,5.07,0,0,1-5.25-4.88,1.5,1.5,0,0,1,0-.3,5.07,5.07,0,0,1,5-5.19h.35a4.62,4.62,0,0,1,4.27,2.45l-1.83.9a2.76,2.76,0,0,0-2.44-1.46,3.11,3.11,0,0,0-3.07,3.15.33.33,0,0,1,0,.14,3.11,3.11,0,0,0,2.92,3.29h.1Zm12.46,1.71-.64-1.73h-4.47l-.63,1.73h-2.35l3.88-10h2.67l3.86,10Zm6.93.18A5.84,5.84,0,0,1,129,53.38l1.18-1.63a4.39,4.39,0,0,0,3.18,1.36c1.17,0,1.74-.56,1.74-1.13,0-.75-.87-1-2-1.28-1.63-.37-3.74-.82-3.74-3.06,0-1.67,1.45-3,3.8-3a5.63,5.63,0,0,1,3.91,1.4l-1.19,1.56A4.29,4.29,0,0,0,133,46.5c-1,0-1.47.42-1.47,1s.84.89,2,1.16c1.65.37,3.76.87,3.76,3.09,0,1.83-1.31,3.21-4,3.21ZM146,46.65h-2.92v8.14h-2.15V46.65H138V44.77h8Z"/></g></g></g></g></svg>