<svg xmlns="http://www.w3.org/2000/svg" viewBox="0 0 147.27 86.43"><defs><style>.cls-1{fill:#c2c5ca;}</style></defs><title>br-logo</title><g id="Layer_2" data-name="Layer 2"><g id="Layer_1-2" data-name="Layer 1"><g id="Layer_1-2-2" data-name="Layer 1-2"><path id="Path_86" data-name="Path 86" class="cls-1" d="M0,41.62V16.74c0-.53.11-.72.68-.71H9.35c4.49-.09,7.54,2.68,8.4,7A13.13,13.13,0,0,1,18,25.61V36.33A7.93,7.93,0,0,1,16.65,41a.38.38,0,0,0,0,.51A8.19,8.19,0,0,1,18,46.41V58.22a9.84,9.84,0,0,1-2,6,7.33,7.33,0,0,1-5.82,3c-3.23.08-6.46,0-9.69,0-.49,0-.5-.24-.5-.6Q0,58,0,49.36Zm7.2,18.55c.21.15.14.38.14.58v2.46c0,.32.1.45.43.44H9.2a1.38,1.38,0,0,0,1.35-.88,2.91,2.91,0,0,0,.25-1.16v-4.8c.25.06.39-.13.54-.26,1.13-1,2.24-2,3.38-2.93a.94.94,0,0,0,.32-.8V45.66A3.65,3.65,0,0,0,15,45a5.43,5.43,0,0,0-2.26-3.45c-.4-.32-.35-.45,0-.73a5.37,5.37,0,0,0,2.32-4.71c-.07-3.52,0-7,0-10.55a11,11,0,0,0-.27-2.43A4.89,4.89,0,0,0,9.8,19H2.47c-.14,0-.35-.09-.4.11s.16.29.31.34c.54.18.66.55.66,1.1V63.15c0,.16-.1.37.1.46s.3-.11.42-.21Z"/><path id="Path_87" data-name="Path 87" class="cls-1" d="M94,25.11a1.93,1.93,0,0,1,0,.34V41.28c0,.12-.09.07,0,.12,0,.27-.17.18-.3.18H91.65a.51.51,0,0,1-.59-.4h0c-.7-2.67-1.41-5.33-2.11-8a12.61,12.61,0,0,0-.58-1.7V41c0,.5-.16.62-.62.59a9.9,9.9,0,0,0-1.54,0c-.4,0-.48-.1-.48-.47V25.61c0-.53.16-.63.64-.61h2.47c.27,0,.4,0,.49.38.66,2.51,1.36,5,2.12,7.51V25.52c0-.4.11-.55.52-.52h1.94Z"/><path id="Path_88" data-name="Path 88" class="cls-1" d="M46.56,32.72a3.09,3.09,0,0,1,1.62,2.85,11.85,11.85,0,0,1-.23,3.8,3.07,3.07,0,0,1-2.62,2.1,43.88,43.88,0,0,1-5,.11c-.27,0-.33-.1-.32-.33s0-.31,0-.46V25.61c0-.52.13-.64.63-.63h4.18a3.13,3.13,0,0,1,3.07,2.81,8.6,8.6,0,0,1,0,2.95A2.93,2.93,0,0,1,46.56,32.72Zm-1.23,4.05v-.52c0-1.69-.27-2-2-1.94-.34,0-.46.08-.45.44V37.5c0,1.57,0,1.59,1.61,1.34a.78.78,0,0,0,.67-.6,5.57,5.57,0,0,0,.1-1.47ZM42.94,29.6v1.6c0,.12-.06.26.11.34a1.63,1.63,0,0,0,1.9-.78,5,5,0,0,0,.08-2.2,1,1,0,0,0-1-.94h-.18a1.69,1.69,0,0,1-.45,0c-.38-.05-.55.07-.52.49S42.94,29.11,42.94,29.6Z"/><path id="Path_89" data-name="Path 89" class="cls-1" d="M40.06,53.2V45.75c0-.56.18-.72.73-.7a41.85,41.85,0,0,1,4.34.11,2.82,2.82,0,0,1,2.64,2.53,12.07,12.07,0,0,1,0,3.6,2.7,2.7,0,0,1-1.18,2c-.14.09-.33.18-.06.36,1.22.79,1.34,2.06,1.39,3.33,0,1.11,0,2.22,0,3.32a1.37,1.37,0,0,0,.06.57c.24.54.06.69-.5.65a9.9,9.9,0,0,0-1.54,0c-.45,0-.59-.18-.65-.59a23.63,23.63,0,0,1-.1-3.26V56.53c0-1.48-.92-1.72-2.13-1.65-.34,0-.28.3-.28.52v5.5c0,.46-.11.66-.6.62a13.36,13.36,0,0,0-1.55,0c-.45,0-.6-.14-.59-.59C40.07,58.32,40.06,55.76,40.06,53.2Zm2.72-3.26v2c0,.16-.05.34.17.43a1.6,1.6,0,0,0,2.1-.83,1.83,1.83,0,0,0,.12-.46v-2.4A1.18,1.18,0,0,0,44,47.48h-.88a.35.35,0,0,0-.4.4v2.06Z"/><path id="Path_90" data-name="Path 90" class="cls-1" d="M127.08,53.32V45.81c0-.75,0-.76.77-.74a30,30,0,0,1,4.24.09A2.92,2.92,0,0,1,134.82,48a12.24,12.24,0,0,1-.06,3.31,3,3,0,0,1-1.1,1.88c-.21.17-.36.24,0,.48a3.17,3.17,0,0,1,1.24,2.64,36.15,36.15,0,0,0,.1,4.29c.1.86.08.87-.81.87h-.91c-.9,0-1,0-1-1v-4a1.66,1.66,0,0,0-1.58-1.73,1.57,1.57,0,0,0-.57.07c-.36.06-.27.31-.27.52v5.39c0,.57-.14.8-.74.75a9.14,9.14,0,0,0-1.48,0c-.42,0-.52-.14-.52-.54C127.09,58.4,127.08,55.86,127.08,53.32Zm2.72-3.38v1.49c0,1.08-.22,1,1,1a1.16,1.16,0,0,0,1.31-1h0v-.07a8.22,8.22,0,0,0,0-2.62c-.11-1-.48-1.21-1.46-1.22h-.52a.38.38,0,0,0-.4.4A16.68,16.68,0,0,1,129.8,49.94Z"/><path id="Path_91" data-name="Path 91" class="cls-1" d="M60.67,32v6.25a3.43,3.43,0,0,1-3.36,3.5h-.17a6.13,6.13,0,0,1-2-.18,3.4,3.4,0,0,1-2.31-3.21V25.46c0-.4.13-.49.5-.47a17.42,17.42,0,0,0,1.77,0c.55,0,.62.19.62.66V38a1,1,0,0,0,.89,1.09h.1c.66.06,1-.26,1.17-1A6.24,6.24,0,0,0,58,36.69V25.51c0-.43.11-.56.54-.53a15.32,15.32,0,0,0,1.66,0c.39,0,.47.11.47.47V32Z"/><path id="Path_92" data-name="Path 92" class="cls-1" d="M52.76,53.2V48.5c.09-2.69,2.12-3.87,4.38-3.6s3.32,1.54,3.43,3.83c.13,2.72,0,5.43.06,8.14a9.54,9.54,0,0,1-.14,1.77c-.41,2.36-2.34,3.27-4.46,3A3.46,3.46,0,0,1,52.76,58V53.2Zm5.16.09v-4.7A1.11,1.11,0,0,0,57,47.35h-.24c-.85,0-1.31.36-1.32,1.22V58a1.18,1.18,0,0,0,.74,1.19,1.23,1.23,0,0,0,1.64-.55h0a1.26,1.26,0,0,0,.12-.66C57.93,56.38,57.92,54.83,57.92,53.29Z"/><path id="Path_93" data-name="Path 93" class="cls-1" d="M120.93,61.47a2.43,2.43,0,0,1-2-.68c-.7-.55-1.48-1-2.2-1.54-.33-.25-.4-.14-.44.19-.06.51-.14,1-.21,1.53s-.2.54-.6.5a11.37,11.37,0,0,0-1.43,0c-.44,0-.51-.17-.45-.55.29-1.77.57-3.53.85-5.3.48-3,.94-6.1,1.45-9.13.29-1.68-.07-1.41,1.59-1.43h2a.55.55,0,0,1,.64.55l1,6,1,6c.18,1.07.34,2.15.52,3.22.08.43,0,.65-.52.6A8.84,8.84,0,0,0,120.93,61.47Zm-3-12.68h-.14c-.31,2.12-.55,4.26-1,6.36a1.59,1.59,0,0,0,.91,2c.54.29,1,.67,1.62,1.07-.49-3.24-1-6.32-1.41-9.41Z"/><path id="Path_94" data-name="Path 94" class="cls-1" d="M81.46,55.12a4.25,4.25,0,0,0-.73,1.94V60.9c0,.47-.15.6-.59.57a13.36,13.36,0,0,0-1.55,0c-.39,0-.54-.09-.54-.51V45.55c0-.38.13-.51.5-.49h1.67c.56,0,.5.16.5.54v5.56a1.36,1.36,0,0,0,.11.6l.93-2c.68-1.43,1.36-2.86,2-4.3a.67.67,0,0,1,.71-.43h1.6c.53,0,.53.13.33.53-1,2.08-2.05,4.18-3.09,6.27a1.17,1.17,0,0,0-.06,1c1.07,2.65,2.11,5.32,3.16,8,.22.57.2.6-.42.61s-1,0-1.55,0a.66.66,0,0,1-.76-.51c-.68-1.84-1.39-3.67-2.09-5.51C81.55,55.32,81.51,55.22,81.46,55.12Z"/><path id="Path_95" data-name="Path 95" class="cls-1" d="M71.81,29.77h-.35c-.93,0-.91,0-1-.95-.11-1.17-.54-1.54-1.55-1.29-.51.13-.78.93-.66,1.65a4,4,0,0,0,1.28,2.3c.5.47,1,1,1.49,1.42a6,6,0,0,1,2.15,5.44,3.49,3.49,0,0,1-2.39,3.2,5,5,0,0,1-3.33-.08,3.39,3.39,0,0,1-2.13-3.24V36.74c0-.3.07-.47.41-.46h1.83c.37,0,.58.11.54.54a9.73,9.73,0,0,0,0,1.08,1,1,0,0,0,.8,1.17H69a1,1,0,0,0,1.18-.77v-.09a2.87,2.87,0,0,0-.69-2.58c-.77-1-1.81-1.74-2.66-2.67a5.69,5.69,0,0,1-1.54-4.44,4.32,4.32,0,0,1,.9-2.58,3.16,3.16,0,0,1,2.51-1.15A5.38,5.38,0,0,1,71,25a3.47,3.47,0,0,1,2.19,3.25v.11C73.2,29.77,73.2,29.77,71.81,29.77Z"/><path id="Path_96" data-name="Path 96" class="cls-1" d="M129.57,29.79a2.6,2.6,0,0,1-1.23-.1c-.32-.19-.1-.77-.18-1.17-.12-.74-.46-1.09-1.1-1.08a1,1,0,0,0-1,.8,3.23,3.23,0,0,0,.86,2.84c.74.75,1.49,1.48,2.25,2.21a5.8,5.8,0,0,1,1.55,6.08,3.32,3.32,0,0,1-3.39,2.38,4.48,4.48,0,0,1-2.68-.58,3.34,3.34,0,0,1-1.54-2.6V36.74c0-.32.09-.46.42-.45h1.83c.41,0,.54.17.5.56a8.34,8.34,0,0,0,0,1,1.11,1.11,0,0,0,1,1.23h.2c.69,0,1.1-.46,1.13-1.24a3.3,3.3,0,0,0-.75-2.21,35,35,0,0,0-2.52-2.5,5.8,5.8,0,0,1-1.42-6.07,3,3,0,0,1,2.7-2.23,5,5,0,0,1,2.75.24,3.41,3.41,0,0,1,2.06,3,.89.89,0,0,1,0,.23C131,29.77,131,29.77,129.57,29.79Z"/><path id="Path_97" data-name="Path 97" class="cls-1" d="M118.7,37.61a3.59,3.59,0,0,1-1.1,3.2,3.43,3.43,0,0,1-2.43.93,6.43,6.43,0,0,1-1.58-.1,3.36,3.36,0,0,1-2.69-3.19V36.73c0-.31.08-.46.41-.45h1.83c.36,0,.52.13.5.52a10.44,10.44,0,0,0,0,1.37.91.91,0,0,0,.91.91h.07a1,1,0,0,0,1.14-.74,3,3,0,0,0-.87-2.91c-.72-.79-1.51-1.52-2.27-2.26a5.83,5.83,0,0,1-1.5-6,3.26,3.26,0,0,1,3.15-2.37,5.22,5.22,0,0,1,2.35.27,3.51,3.51,0,0,1,2.08,3.22c.07,1.46,0,1.46-1.45,1.46-1.25,0-1.25,0-1.33-1.27a.89.89,0,0,0-1-1c-.66,0-1,.16-1.12.81a3.17,3.17,0,0,0,.65,2.57,23.35,23.35,0,0,0,2.39,2.38,6.45,6.45,0,0,1,1.8,3.06A7.15,7.15,0,0,1,118.7,37.61Z"/><path id="Path_98" data-name="Path 98" class="cls-1" d="M99.19,33.27V25.53c0-.47.15-.56.58-.55h6.13c.45,0,.56.13.53.54a14.23,14.23,0,0,0,0,1.6c0,.38-.06.54-.5.52h-3.32c-.39,0-.54.07-.52.5v3.21c0,.36.12.45.46.44h2.52c.44,0,.57.14.55.56a14.23,14.23,0,0,0,0,1.6c0,.4-.1.54-.51.53h-2.53c-.36,0-.5.06-.5.46V38.5c0,.38.14.43.47.43h3.38c.37,0,.52.09.5.48a17.61,17.61,0,0,0,0,1.78c0,.4-.13.46-.5.46H99.8c-.47,0-.61-.09-.6-.58C99.2,38.43,99.19,35.85,99.19,33.27Z"/><path id="Path_99" data-name="Path 99" class="cls-1" d="M68.11,53.29v4.59c0,.93.45,1.34,1.35,1.3a1,1,0,0,0,1.08-.9,9.18,9.18,0,0,0,.08-2.4c0-.49.16-.64.63-.6s1,0,1.43,0,.5.1.48.45a24.85,24.85,0,0,1-.1,2.86,3.42,3.42,0,0,1-3.09,3,3.82,3.82,0,0,1-4-1.74,4.76,4.76,0,0,1-.53-2.37v-8.6a6.09,6.09,0,0,1,.27-1.69,3.61,3.61,0,0,1,4.21-2.35,3.54,3.54,0,0,1,3.28,3.77h0v1.61c0,.26-.1.38-.37.38H71.06c-.32,0-.38-.17-.38-.44a9.83,9.83,0,0,0-.08-1.88,1.15,1.15,0,0,0-1.25-1h-.19c-.61,0-1,.5-1,1.24v4.71Z"/><path id="Path_100" data-name="Path 100" class="cls-1" d="M92,56.43c1.21,0,1.21,0,1.23,1.26,0,1.08.41,1.51,1.35,1.49a1,1,0,0,0,1.09-.87h0a3.1,3.1,0,0,0-.89-2.93c-.78-.84-1.65-1.6-2.43-2.43a5.55,5.55,0,0,1-1.46-5.28c.49-2.18,2.15-2.94,4.13-2.78,2.74.22,3.45,2.33,3.38,4.38,0,.27-.15.37-.4.37H96.28c-.29,0-.41-.14-.4-.42s0-.46,0-.69a1.12,1.12,0,0,0-1-1.19,1.13,1.13,0,0,0-.26,0c-.7,0-1,.44-1.12,1.25a3.63,3.63,0,0,0,1.11,2.78C95.4,52.3,96.43,53,97.2,54a5.57,5.57,0,0,1,1,5.18c-.52,2-2.23,2.68-4.17,2.46A3.49,3.49,0,0,1,90.7,58h0v-.27C90.69,56.43,90.69,56.43,92,56.43Z"/><path id="Path_101" data-name="Path 101" class="cls-1" d="M147.25,57.6a3.72,3.72,0,0,1-1.47,3.4c-1.62,1.12-5.15,1-6-1.78a8.76,8.76,0,0,1-.22-2.5.27.27,0,0,1,.22-.31h1.93c.31,0,.37.18.38.45a4.92,4.92,0,0,0,.1,1.53c.2.58.51.78,1.24.77a1,1,0,0,0,1.08-.82,3.11,3.11,0,0,0-.87-3c-.81-.87-1.71-1.65-2.5-2.52a5.6,5.6,0,0,1-1.37-5.25c.48-2.18,2.38-2.91,4.21-2.72,2.55.27,3.38,2.27,3.27,4.37,0,.26-.13.38-.39.38h-1.72c-.29,0-.4-.14-.41-.43a4.06,4.06,0,0,0-.06-.85c-.16-.83-.52-1.09-1.37-1-.6,0-.92.49-1,1.19a3.56,3.56,0,0,0,1.11,2.84c.81.89,1.81,1.58,2.55,2.54A5,5,0,0,1,147.25,57.6Z"/><path id="Path_102" data-name="Path 102" class="cls-1" d="M28.34,43.17V.23c0-.15.21-.23.38-.23s.37,0,.39.22a3.48,3.48,0,0,1,0,.46V86.14a.34.34,0,0,1-.35.29c-.19,0-.4,0-.42-.28a4.4,4.4,0,0,1,0-.52Z"/><path id="Path_103" data-name="Path 103" class="cls-1" d="M107.9,54.48V60.9c0,.46-.14.6-.59.57a13.19,13.19,0,0,0-1.54,0c-.48,0-.61-.14-.61-.61V48.2c0-.58-.12-.8-.72-.73a11.3,11.3,0,0,1-1.54,0c-.3,0-.41-.11-.4-.4v-1.6c0-.34.15-.42.45-.42h7.11c.33,0,.49.1.47.46s0,1,0,1.54c0,.33-.13.44-.44.43h-1.55c-.55,0-.68.18-.68.71C107.92,50.28,107.9,52.38,107.9,54.48Z"/><path id="Path_104" data-name="Path 104" class="cls-1" d="M80.69,25.23v15a7.79,7.79,0,0,1-.07,1.28c-.43,0-.85.07-1.28.08H78.09V26.16a5.61,5.61,0,0,1,0-.58V25h2.53A1.07,1.07,0,0,1,80.69,25.23Z"/><path id="Path_105" data-name="Path 105" class="cls-1" d="M94,25.11l-.12-.1C94,25,94.06,25,94,25.11Z"/><path id="Path_106" data-name="Path 106" class="cls-1" d="M94,41.4c-.09,0-.08-.09,0-.12Z"/><path id="Path_107" data-name="Path 107" class="cls-1" d="M7.21,60.17c.12-1.7,0-3.4,0-5.09V44.19c0-.91,0-.94.92-.94h.68c1.26-.15,1.86.65,1.93,1.81.15,2.46,0,4.93.06,7.39v9.16a2.72,2.72,0,0,1-.25,1.16,1.34,1.34,0,0,1-1.34.87H7.76c-.32,0-.43-.12-.42-.43V60.75C7.34,60.55,7.42,60.32,7.21,60.17Z"/><path id="Path_108" data-name="Path 108" class="cls-1" d="M7.35,31.36V24.14c0-.46.1-.69.6-.63h.74A1.81,1.81,0,0,1,10.74,25a3.53,3.53,0,0,1,0,.46V36.58a7.44,7.44,0,0,1-.1,1.25,1.59,1.59,0,0,1-1.52,1.45,13.63,13.63,0,0,1-1.43,0c-.43,0-.38-.29-.38-.56v-6C7.34,32.31,7.35,31.83,7.35,31.36Z"/></g></g></g></svg>