<svg xmlns="http://www.w3.org/2000/svg" viewBox="0 0 163.65 40.51"><defs><style>.cls-1{fill:#c2c5ca;}</style></defs><title>cnn-logo</title><g id="Layer_2" data-name="Layer 2"><g id="Layer_1-2" data-name="Layer 1"><g id="Layer_1-2-2" data-name="Layer 1-2"><g id="Group_14" data-name="Group 14"><path id="Path_61" data-name="Path 61" class="cls-1" d="M22.42,25.08l-1.61,1c-1.64,1.08-2.8.6-3.33-1.34-.14-.51.17-.65.45-.83,1.72-1.15,3.41-2.33,5.18-3.4a2.69,2.69,0,0,1,3.72.73h0c1.22,1.73,2.3,3.55,3.45,5.32.32.49.24.78-.21,1.15-1.82,1.54-2.08,1.52-3.32-.41A3.14,3.14,0,0,0,25.68,26c-.38,1.75-.75,3.44-1.11,5.13a28,28,0,0,0-.6,3.11,2.2,2.2,0,0,0,1.85,2.5h0a2.13,2.13,0,0,0,1.29-.2c8.69-3.3,13.22-14.52,9.38-23.09a17.56,17.56,0,0,0-10.75-10c-.47-.15-1.32,0-1-1S24.63.36,26.11.08,29,.31,30.37.24c3.08-.15,6.13-.4,9.2.36,14.38,3.58,19.9,21.87,10,32.88A19.16,19.16,0,0,1,32,40.06a5.31,5.31,0,0,0-1.38.07,13,13,0,0,1-6.26-.36,5.26,5.26,0,0,1-3.64-6.17c.26-1.41.54-2.82.83-4.23S22.08,26.68,22.42,25.08ZM34.29,35.53c4.61-.15,10.3-7.85,10.65-14.38.49-8.93-6-15.73-11.26-16.78,4.69,4.3,7.37,9.42,7.45,15.58A20.14,20.14,0,0,1,34.29,35.53Zm6.75,0c4.61-.15,10.3-7.85,10.65-14.38.49-8.93-6-15.73-11.26-16.78,4.69,4.3,7.37,9.42,7.45,15.58A20.16,20.16,0,0,1,41,35.53Z"/><path id="Path_62" data-name="Path 62" class="cls-1" d="M163.59,26.23V36.75c0,1-.25,1.2-1.2,1.2h-5.11c-1,0-1.19-.29-1.19-1.22V18c0-4.72-2.83-7.59-7.57-7.7h-3.25c-4.73.1-7.58,2.94-7.6,7.66,0,6-.06,12.07,0,18.11,0,1.48,0,1.88-1.48,1.85s-3.37,0-5,0c-.76,0-1.1-.15-1.1-1,0-7-.12-14,.07-21.05.18-6.43,5.93-12.34,12.44-13a31,31,0,0,1,9.71.24C159,4.51,164,10.7,163.63,17.24,163.45,20.23,163.59,23.23,163.59,26.23Z"/><path id="Path_63" data-name="Path 63" class="cls-1" d="M115.85,4h8.36c.93,0,1.27.23,1.23,1.21-.08,1.7-.07,3.4,0,5.1,0,1-.23,1.33-1.28,1.32-4.54-.06-9.09,0-13.63,0-5.08,0-7.9,2.84-7.9,8a24.74,24.74,0,0,0,.21,5.09,6.81,6.81,0,0,0,6.88,5.69h14.4c1,0,1.38.21,1.32,1.27-.08,1.75,0,3.51,0,5.26,0,.74-.11,1.14-1,1.13-5.47,0-11,.19-16.4-.11-6-.33-9.93-3.91-11.88-9.36a23.49,23.49,0,0,1-.1-14.89,13.7,13.7,0,0,1,13.6-9.65C111.71,4.05,113.78,4,115.85,4Z"/><path id="Path_64" data-name="Path 64" class="cls-1" d="M82.38,4h8.36c.82,0,1.07.23,1,1-.06,1.8-.08,3.62,0,5.42,0,1-.36,1.17-1.24,1.16H76.71c-4.83,0-7.67,2.82-7.67,7.7,0,2-.27,3.92.29,5.85a6.7,6.7,0,0,0,6.8,5.21c4.75,0,9.5.05,14.24,0,1.08,0,1.43.25,1.37,1.36-.1,1.8,0,3.61,0,5.41,0,.63-.13.94-.85.94-5.52,0-11.06.19-16.56-.13-6.42-.43-11.88-5.92-12.6-12.48A30.84,30.84,0,0,1,62,15.12c1.32-5.9,6.8-11.58,14-11.18C78.14,4.06,80.26,4,82.38,4Z"/><path id="Path_65" data-name="Path 65" class="cls-1" d="M18.79,15.28a7.36,7.36,0,0,0,2.54-1.4c.57-.38.87-.27,1.26.25,1.48,2,1.49,1.94-.54,3.3-1.26.85-2.51,1.74-3.81,2.54a2.8,2.8,0,0,1-3.91-.61v0l-.14-.21c-1.14-1.65-2.17-3.39-3.29-5-.38-.58-.25-.84.27-1.24,2-1.48,2-1.51,3.28.55.28.43.57.84,1,1.51.59-2.9,1.22-5.52,1.65-8.18.38-2.32-1.3-3.53-3.43-2.57A17.48,17.48,0,0,0,3.34,20.84a17.57,17.57,0,0,0,11.24,16c2.08.78,2,.77,1.61,2.86-.18.9-.52.91-1.26.67A21.2,21.2,0,0,1,4.63,33.3C-4.46,21.89.57,6.22,13.32,1a5,5,0,0,1,5.35.9,5.45,5.45,0,0,1,1.69,5.62C19.87,10,19.34,12.53,18.79,15.28Z"/></g></g></g></g></svg>