<svg xmlns="http://www.w3.org/2000/svg" viewBox="0 0 157.9 30.62"><defs><style>.cls-1{fill:#c2c5ca;}</style></defs><title>coindesk-logo</title><g id="Layer_2" data-name="Layer 2"><g id="Layer_1-2" data-name="Layer 1"><g id="Layer_1-2-2" data-name="Layer 1-2"><path class="cls-1" d="M13.79,15.46A1.49,1.49,0,1,0,15.31,14h0a1.47,1.47,0,0,0-1.49,1.45v0M26.36,14a1.49,1.49,0,1,0,1.49,1.49h0A1.47,1.47,0,0,0,26.4,14h0m0,11.28a1.49,1.49,0,1,0,1.49,1.49h0a1.47,1.47,0,0,0-1.45-1.49h0"/><path class="cls-1" d="M29.53,1.58A4,4,0,0,0,23.9,1l-.15.13-.18.18-.37.28a3.87,3.87,0,0,1-5.13-.28V1.21a4.22,4.22,0,0,0-1.77-1c-.09,0-.28-.1-.37-.1H14.44a.33.33,0,0,0-.28.1H14c-.09,0-.18.09-.28.09a.09.09,0,0,0-.09.09h0c-.09,0-.19.1-.28.1a.09.09,0,0,0-.09.09h0c-.09.09-.19.09-.28.19a.09.09,0,0,0-.09.09h0c-.1.09-.19.09-.28.18l-.1.1-.18.18L12,1.6a3.72,3.72,0,0,1-5-.28.09.09,0,0,1-.09-.09h0L6.61,1A3.87,3.87,0,0,0,4.66.09H3c0,.1-.09.1-.19.19H2.7A3.77,3.77,0,0,0,1.4,1l-.1.1L1,1.4A4.36,4.36,0,0,0,.28,2.61c0,.09-.09.18-.09.28s-.1.18-.1.37a4.65,4.65,0,0,0,.1,2c0,.09.09.18.09.28v.09c0,.09.09.19.09.28s.1.19.19.37A2,2,0,0,1,1,6.61l.19.19L1.4,7a3.81,3.81,0,0,1-.1,5.31A3.34,3.34,0,0,0,.75,13c-.1.09-.1.19-.19.37v.09c-.09.1-.09.19-.19.28v.1c0,.09-.09.18-.09.28v.09a.37.37,0,0,1-.09.28v1.4a.37.37,0,0,0,.09.28v.09A4.32,4.32,0,0,0,1.4,18.07a3.83,3.83,0,0,1,0,5.41l-.1.09-.18.18v.1c-.1.09-.19.18-.19.28a.09.09,0,0,1-.09.09h0c-.09.09-.09.19-.19.28l-.09.09c0,.1-.09.1-.09.19s-.1.09-.1.19,0,.09-.09.18A2.82,2.82,0,0,0,0,26.36v.75c.09.28.09.56.28.74A.38.38,0,0,0,.37,28a.09.09,0,0,0,.09.09h0c0,.1.09.19.09.28s0,.1.09.1a1.44,1.44,0,0,0,.28.37.09.09,0,0,0,0,.13A.1.1,0,0,0,1,29a.09.09,0,0,0,.09.09h0a.09.09,0,0,0,.08.1h0l.09.09c.1.09.19.09.19.19l.09.09s.1,0,.1.09.18.19.28.19a.09.09,0,0,1,.09.09H2c.09.1.19.1.28.19H2.4c.1.09.19.09.37.09s.28.1.38.1h.09a.37.37,0,0,1,.28.09h.84c.28,0,.46-.09.74-.09h.1c.09,0,.18-.1.28-.1h.09c.09,0,.19-.09.28-.09H6c.19-.09.47-.28.65-.37l.28-.28.1-.1a3.67,3.67,0,0,1,5.19-.21c.07.06.14.14.21.21a4,4,0,0,0,5.65.15,3.24,3.24,0,0,0,.4-.43,4,4,0,0,0-5.63-5.52l-.14.12-.19.19-.37.28A3.85,3.85,0,0,1,7,23.85l-.19-.19-.28-.37a3.85,3.85,0,0,1,.28-5.12A3.68,3.68,0,0,0,8,15.37v-.28a3.29,3.29,0,0,0-1.12-2.51c0-.1-.09-.1-.09-.19L6.52,12A3.86,3.86,0,0,1,6.8,6.89l.09-.09L7,6.71a3.65,3.65,0,0,1,5.16-.24l.24.24.09.09.1.09.18.19c.1,0,.1.09.19.09s.09.1.19.1.09.09.18.09.09.09.19.09.09.1.18.1.1.09.19.09.09,0,.19.09.09,0,.18.1h1.59a.36.36,0,0,0,.28-.1h.18c.1,0,.19-.09.28-.09h.09c.1,0,.19-.09.38-.19a3.82,3.82,0,0,0,1-.74l.1-.1a3.67,3.67,0,0,1,5.19-.21c.07.06.14.14.21.21a3.82,3.82,0,0,0,5.38.48,4.29,4.29,0,0,0,.62-.66,3.92,3.92,0,0,0,0-4.85"/><path class="cls-1" d="M50.77,13.14a5.08,5.08,0,0,0-1.68-1.22A4.46,4.46,0,0,0,47,11.46a4.8,4.8,0,0,0-2,.46,3.64,3.64,0,0,0-1.39,1.22,4.54,4.54,0,0,0-.84,1.67,7.1,7.1,0,0,0-.28,2,4.83,4.83,0,0,0,.37,2,4.47,4.47,0,0,0,.93,1.59,4.68,4.68,0,0,0,1.49,1.12,4.3,4.3,0,0,0,2,.37,4.43,4.43,0,0,0,2-.47,4.7,4.7,0,0,0,1.58-1.21l2,2.05A6.57,6.57,0,0,1,50.39,24a8.27,8.27,0,0,1-3.07.56A8.79,8.79,0,0,1,44.15,24a7,7,0,0,1-4-4,8.79,8.79,0,0,1-.56-3.17,8.38,8.38,0,0,1,.56-3.17,8.65,8.65,0,0,1,1.58-2.51A7.16,7.16,0,0,1,44.06,9.5a8.79,8.79,0,0,1,3.17-.56,8.27,8.27,0,0,1,3.07.56,7.16,7.16,0,0,1,2.61,1.77l-2.14,1.87m6.33,3.44a4.67,4.67,0,0,0,.38,2.05,4.86,4.86,0,0,0,.93,1.68,3.24,3.24,0,0,0,1.49,1,4.67,4.67,0,0,0,2.05.38,5,5,0,0,0,2-.38,6,6,0,0,0,1.49-1,5.23,5.23,0,0,0,.93-1.68,7.13,7.13,0,0,0,.37-2.05,4.71,4.71,0,0,0-.37-2,4.91,4.91,0,0,0-.93-1.67,3.31,3.31,0,0,0-1.49-1,4.71,4.71,0,0,0-2-.37,5,5,0,0,0-2.05.37,5.56,5.56,0,0,0-1.49,1,4.75,4.75,0,0,0-.93,1.67A7.22,7.22,0,0,0,57.1,16.58Zm-3,0a8.27,8.27,0,0,1,.56-3.07A7.54,7.54,0,0,1,56.36,11a6.75,6.75,0,0,1,2.51-1.67A8,8,0,0,1,62,8.66a6.64,6.64,0,0,1,3,.66A7.46,7.46,0,0,1,67.54,11a9.48,9.48,0,0,1,1.68,2.52,8.26,8.26,0,0,1,.55,3.07,8.31,8.31,0,0,1-.55,3.08,7.74,7.74,0,0,1-1.68,2.51A7.84,7.84,0,0,1,65,23.85a8.37,8.37,0,0,1-3,.65,7,7,0,0,1-3.08-.65,7.34,7.34,0,0,1-2.51-1.68,7.74,7.74,0,0,1-1.68-2.51,10.8,10.8,0,0,1-.61-3.08Zm18.54,7.55h2.8V9.22h-2.8ZM72,3.82a2.26,2.26,0,0,1,.56-1.49A2,2,0,0,1,74,1.68a1.65,1.65,0,0,1,1.39.65A2.06,2.06,0,0,1,76,3.82a2.26,2.26,0,0,1-.56,1.49A2,2,0,0,1,74,6a1.65,1.65,0,0,1-1.4-.65A2.13,2.13,0,0,1,72,3.82Zm7.36,5.4h2.79v2.33h.1a3.75,3.75,0,0,1,1.86-2,6.2,6.2,0,0,1,3.07-.75,5.07,5.07,0,0,1,2,.37,3.85,3.85,0,0,1,1.68,1A6.26,6.26,0,0,1,92.13,12a7.05,7.05,0,0,1,.47,2.61V24.2H89.8V15.37a5.09,5.09,0,0,0-.28-1.77,3.76,3.76,0,0,0-.74-1.21,2.24,2.24,0,0,0-1.12-.65,5.17,5.17,0,0,0-1.3-.19,4.34,4.34,0,0,0-1.59.28,3.09,3.09,0,0,0-1.3.93,3.82,3.82,0,0,0-.84,1.59,8,8,0,0,0-.28,2.23v7.73H79.56V9.22M102.94,21.8a5.07,5.07,0,0,0,2-.37,4.89,4.89,0,0,0,1.58-1.12,4.86,4.86,0,0,0,.93-1.68,7.41,7.41,0,0,0,.38-2.14,5.41,5.41,0,0,0-.38-2.14,4.32,4.32,0,0,0-2.51-2.8,5.9,5.9,0,0,0-4.1,0,4.79,4.79,0,0,0-1.59,1.12,5,5,0,0,0-.93,1.68A7.35,7.35,0,0,0,98,16.49a5.4,5.4,0,0,0,.37,2.14,5.23,5.23,0,0,0,.93,1.68,4.23,4.23,0,0,0,1.59,1.12A6.81,6.81,0,0,0,102.94,21.8Zm7.73,2.2h-2.79V21.89h-.1a5.45,5.45,0,0,1-2.23,1.86,6.61,6.61,0,0,1-3,.66,8.79,8.79,0,0,1-3.17-.56A6.16,6.16,0,0,1,97,22.17a6.55,6.55,0,0,1-1.49-2.51A8.32,8.32,0,0,1,95,16.58a8.79,8.79,0,0,1,.56-3.17A8.18,8.18,0,0,1,97,10.9a6.3,6.3,0,0,1,2.4-1.68,8.38,8.38,0,0,1,3.17-.56,6.61,6.61,0,0,1,3,.66,5.28,5.28,0,0,1,2.14,1.86h.09V0h2.8V24Zm14.25-8.66a5.33,5.33,0,0,0-.28-1.77,3.35,3.35,0,0,0-.84-1.4,6.68,6.68,0,0,0-1.3-.93,5.6,5.6,0,0,0-1.86-.37,4.17,4.17,0,0,0-1.87.37,5.56,5.56,0,0,0-1.49,1,3.74,3.74,0,0,0-.93,1.39,5.17,5.17,0,0,0-.37,1.49h8.94ZM116,17.7a3.77,3.77,0,0,0,.47,1.77,4.08,4.08,0,0,0,1.11,1.4,5.4,5.4,0,0,0,1.59.84A6.66,6.66,0,0,0,121,22a4,4,0,0,0,2.33-.65,7,7,0,0,0,1.77-1.58l2.14,1.68a7.91,7.91,0,0,1-6.61,3.07,8.38,8.38,0,0,1-3.17-.56A6.19,6.19,0,0,1,115,22.28a6.24,6.24,0,0,1-1.49-2.51,7.93,7.93,0,0,1-.56-3.08,8.07,8.07,0,0,1,.56-3.07,8.65,8.65,0,0,1,1.58-2.51,7.27,7.27,0,0,1,2.42-1.68,8.32,8.32,0,0,1,3.08-.56A7.5,7.5,0,0,1,124,9.5a6.23,6.23,0,0,1,2.24,1.77,8.05,8.05,0,0,1,1.3,2.52,9.7,9.7,0,0,1,.37,2.88v1ZM138.9,13a6.85,6.85,0,0,0-1.21-1,3.65,3.65,0,0,0-1.77-.46,3.76,3.76,0,0,0-1.77.46,1.36,1.36,0,0,0-.75,1.22,1.22,1.22,0,0,0,.47,1,3.66,3.66,0,0,0,1,.65,5.64,5.64,0,0,0,1.21.37,6.1,6.1,0,0,0,1.12.19,9,9,0,0,1,1.68.56,3.61,3.61,0,0,1,1.39.84,5.78,5.78,0,0,1,.94,1.21,4.67,4.67,0,0,1,.37,1.77A3.84,3.84,0,0,1,141,22a5.23,5.23,0,0,1-1.4,1.49,6.37,6.37,0,0,1-2,.84,9.17,9.17,0,0,1-5.41-.28A5.65,5.65,0,0,1,129.75,22l2.14-1.77a9.17,9.17,0,0,0,1.49,1.21,3.45,3.45,0,0,0,2,.56,5.24,5.24,0,0,0,1.12-.09,2.88,2.88,0,0,0,.93-.37,4.93,4.93,0,0,0,.65-.56,1.48,1.48,0,0,0,.28-.84,1.41,1.41,0,0,0-.37-1,3.32,3.32,0,0,0-.93-.65A5.78,5.78,0,0,0,136,18l-1.12-.28c-.56-.19-1.21-.28-1.68-.47a4.89,4.89,0,0,1-1.39-.74,4.49,4.49,0,0,1-1-1.21,3.62,3.62,0,0,1-.37-1.77,5,5,0,0,1,.46-2,3.75,3.75,0,0,1,1.31-1.4A6.43,6.43,0,0,1,134,9.22a7.91,7.91,0,0,1,2-.28,7.74,7.74,0,0,1,2.89.56,4.79,4.79,0,0,1,2.23,1.87L138.9,13M144.3.37h2.79V15.46l6.34-6.33h3.82l-6.8,6.71,7.45,8h-4l-6.8-7.64v7.64h-2.8V.37"/></g></g></g></svg>