<svg xmlns="http://www.w3.org/2000/svg" viewBox="0 0 96.05 77.01"><defs><style>.cls-1{fill:#c2c5ca;}</style></defs><title>datadash-logo</title><g id="Layer_2" data-name="Layer 2"><g id="Layer_1-2" data-name="Layer 1"><g id="Layer_1-2-2" data-name="Layer 1-2"><g id="Group_9" data-name="Group 9"><path id="Path_43" data-name="Path 43" class="cls-1" d="M73.05,9.94a9.77,9.77,0,0,1-2.87,6.6A31.25,31.25,0,0,1,67.5,19c-.57.49-.61.58-.22,1.23s.62,1,1,1.54a.76.76,0,0,1-.07,1,4.48,4.48,0,0,1-5.33,1.45c-.76-.26-.77-.23-.82.58a18.7,18.7,0,0,1-2.85,8.85c-.16.27-.35.52-.51.78-.25.44-.49.37-.81.06a16.42,16.42,0,0,0-1.76-1.58,6,6,0,0,0-7.57.23c-1.92,1.71-3.68,3.59-5.5,5.39-.77.76-1.55,1.51-2.3,2.29-.33.33-.55.25-.8-.07A6.17,6.17,0,0,1,38.67,36a1.91,1.91,0,0,0-.35-1.48,19.29,19.29,0,0,1-3.41-9.85c0-.59-.13-.66-.73-.46A4.55,4.55,0,0,1,30,23.89a8.48,8.48,0,0,1-1.26-1.21.65.65,0,0,1,0-.9c.37-.57.7-1.16,1.1-1.71a.6.6,0,0,0,0-.85h0a.48.48,0,0,0-.16-.12,16.21,16.21,0,0,1-4.2-4.3,8.83,8.83,0,0,1,.43-10.6,15.66,15.66,0,0,1,4-3.7,2.87,2.87,0,0,1,3.35.08,2.88,2.88,0,0,1,.9,3.08c-.2.74-.4,1.49-.53,2.24a1.5,1.5,0,0,0,.95,1.9h0a1.54,1.54,0,0,0,.42.07h.16c1.83.36,1.94.32,2.93-1.25A4.28,4.28,0,0,1,40.15,5a3.85,3.85,0,0,1,3.2.17c.75.35,1.48.74,2.21,1.11A5.71,5.71,0,0,0,51,6.4q1.24-.63,2.52-1.23a4,4,0,0,1,5.22,1.4,4.67,4.67,0,0,1,.38.6,1.42,1.42,0,0,0,1.73.9,14.89,14.89,0,0,0,1.62-.3,1.18,1.18,0,0,0,.93-1.32,9.18,9.18,0,0,0-.34-1.87,3.89,3.89,0,0,1,0-3.1A2.5,2.5,0,0,1,66.35.26l.16.08c3.25,2,5.74,4.54,6.47,8.46a1.21,1.21,0,0,0,.07.49A2,2,0,0,1,73.05,9.94Zm-15.92,10c-1.58.22-3.32.46-5.06.72-.85.13-1,.5-.86,1.35a3.67,3.67,0,0,0,7.22-1c0-.87-.3-1.15-1.3-1.11Zm-17.46,0c-.7,0-1,.18-1.12.67a4.21,4.21,0,0,0,0,.71,3.71,3.71,0,0,0,3.73,3.47,3.84,3.84,0,0,0,3.5-2.7c.19-.93-.11-1.34-1-1.44l-.49-.06Z"/><path id="Path_44" data-name="Path 44" class="cls-1" d="M73.86,27.42c1.75-.07,2.55.84,2.32,2.26-.39,2.33-.76,4.67-1.19,7a2.93,2.93,0,0,1-.66,1.4,1.61,1.61,0,0,1-2.28,0h0c-.35-.3-.67-.63-1-.94-.52-.49-.65-.5-1.18,0l-3,3c-2.05,2-4.09,4.1-6.17,6.12a2.24,2.24,0,0,1-3.16,0l-.09-.09L53,41.79c-.5-.49-.58-.49-1.06,0l-9.7,9.67a2.37,2.37,0,0,1-1.9.82,2.24,2.24,0,0,1-2.09-1.45,2.12,2.12,0,0,1,.44-2.43q3.47-3.42,6.9-6.87c1.67-1.67,3.38-3.31,5-5a2.56,2.56,0,0,1,3.61-.09h0c1.4,1.45,2.86,2.85,4.29,4.27.54.53.62.53,1.16,0l6.92-6.92c.5-.5.5-.62,0-1.12-.28-.29-.59-.56-.85-.86a1.81,1.81,0,0,1-.22-2.54,1.82,1.82,0,0,1,1.22-.63c1.67-.31,3.36-.56,5-.83Z"/></g><rect id="Rectangle_76" data-name="Rectangle 76" class="cls-1" y="63.63" width="1.7" height="1.7"/><rect id="Rectangle_77" data-name="Rectangle 77" class="cls-1" y="65.58" width="1.7" height="1.7"/><rect id="Rectangle_78" data-name="Rectangle 78" class="cls-1" y="67.53" width="1.7" height="1.7"/><rect id="Rectangle_79" data-name="Rectangle 79" class="cls-1" y="69.47" width="1.7" height="1.7"/><rect id="Rectangle_80" data-name="Rectangle 80" class="cls-1" y="71.42" width="1.7" height="1.7"/><rect id="Rectangle_81" data-name="Rectangle 81" class="cls-1" y="73.37" width="1.7" height="1.7"/><rect id="Rectangle_82" data-name="Rectangle 82" class="cls-1" x="7.82" y="65.58" width="1.7" height="1.7"/><rect id="Rectangle_83" data-name="Rectangle 83" class="cls-1" x="7.82" y="67.53" width="1.7" height="1.7"/><rect id="Rectangle_84" data-name="Rectangle 84" class="cls-1" x="7.82" y="69.47" width="1.7" height="1.7"/><rect id="Rectangle_85" data-name="Rectangle 85" class="cls-1" x="7.82" y="71.42" width="1.7" height="1.7"/><rect id="Rectangle_86" data-name="Rectangle 86" class="cls-1" x="7.82" y="73.37" width="1.7" height="1.7"/><rect id="Rectangle_87" data-name="Rectangle 87" class="cls-1" y="75.31" width="1.7" height="1.7"/><rect id="Rectangle_88" data-name="Rectangle 88" class="cls-1" x="1.96" y="75.31" width="1.7" height="1.7"/><rect id="Rectangle_89" data-name="Rectangle 89" class="cls-1" x="3.91" y="75.31" width="1.7" height="1.7"/><rect id="Rectangle_90" data-name="Rectangle 90" class="cls-1" x="5.87" y="75.31" width="1.7" height="1.7"/><rect id="Rectangle_91" data-name="Rectangle 91" class="cls-1" x="1.96" y="63.63" width="1.7" height="1.7"/><rect id="Rectangle_92" data-name="Rectangle 92" class="cls-1" x="3.91" y="63.63" width="1.7" height="1.7"/><rect id="Rectangle_93" data-name="Rectangle 93" class="cls-1" x="5.87" y="63.63" width="1.7" height="1.7"/><rect id="Rectangle_94" data-name="Rectangle 94" class="cls-1" x="22.37" y="63.63" width="1.7" height="1.7"/><rect id="Rectangle_95" data-name="Rectangle 95" class="cls-1" x="26.28" y="65.58" width="1.7" height="1.7"/><rect id="Rectangle_96" data-name="Rectangle 96" class="cls-1" x="26.28" y="67.53" width="1.7" height="1.7"/><rect id="Rectangle_97" data-name="Rectangle 97" class="cls-1" x="26.28" y="69.47" width="1.7" height="1.7"/><rect id="Rectangle_98" data-name="Rectangle 98" class="cls-1" x="26.28" y="71.42" width="1.7" height="1.7"/><rect id="Rectangle_99" data-name="Rectangle 99" class="cls-1" x="26.28" y="73.37" width="1.7" height="1.7"/><rect id="Rectangle_100" data-name="Rectangle 100" class="cls-1" x="26.28" y="75.31" width="1.7" height="1.7"/><rect id="Rectangle_101" data-name="Rectangle 101" class="cls-1" x="24.33" y="63.63" width="1.7" height="1.7"/><rect id="Rectangle_102" data-name="Rectangle 102" class="cls-1" x="26.28" y="63.63" width="1.7" height="1.7"/><rect id="Rectangle_103" data-name="Rectangle 103" class="cls-1" x="28.24" y="63.63" width="1.7" height="1.7"/><rect id="Rectangle_104" data-name="Rectangle 104" class="cls-1" x="30.19" y="63.63" width="1.7" height="1.7"/><rect id="Rectangle_105" data-name="Rectangle 105" class="cls-1" x="18.97" y="75.31" width="1.7" height="1.7"/><rect id="Rectangle_106" data-name="Rectangle 106" class="cls-1" x="11.15" y="65.58" width="1.7" height="1.7"/><rect id="Rectangle_107" data-name="Rectangle 107" class="cls-1" x="11.15" y="67.53" width="1.7" height="1.7"/><rect id="Rectangle_108" data-name="Rectangle 108" class="cls-1" x="11.15" y="69.47" width="1.7" height="1.7"/><rect id="Rectangle_109" data-name="Rectangle 109" class="cls-1" x="11.15" y="71.42" width="1.7" height="1.7"/><rect id="Rectangle_110" data-name="Rectangle 110" class="cls-1" x="11.15" y="73.37" width="1.7" height="1.7"/><rect id="Rectangle_111" data-name="Rectangle 111" class="cls-1" x="18.97" y="65.58" width="1.7" height="1.7"/><rect id="Rectangle_112" data-name="Rectangle 112" class="cls-1" x="18.97" y="67.53" width="1.7" height="1.7"/><rect id="Rectangle_113" data-name="Rectangle 113" class="cls-1" x="18.97" y="69.47" width="1.7" height="1.7"/><rect id="Rectangle_114" data-name="Rectangle 114" class="cls-1" x="18.97" y="71.42" width="1.7" height="1.7"/><rect id="Rectangle_115" data-name="Rectangle 115" class="cls-1" x="18.97" y="73.37" width="1.7" height="1.7"/><rect id="Rectangle_116" data-name="Rectangle 116" class="cls-1" x="11.15" y="75.31" width="1.7" height="1.7"/><rect id="Rectangle_117" data-name="Rectangle 117" class="cls-1" x="13.1" y="71.42" width="1.7" height="1.7"/><rect id="Rectangle_118" data-name="Rectangle 118" class="cls-1" x="15.06" y="71.42" width="1.7" height="1.7"/><rect id="Rectangle_119" data-name="Rectangle 119" class="cls-1" x="17.01" y="71.42" width="1.7" height="1.7"/><rect id="Rectangle_120" data-name="Rectangle 120" class="cls-1" x="13.1" y="63.63" width="1.7" height="1.7"/><rect id="Rectangle_121" data-name="Rectangle 121" class="cls-1" x="15.06" y="63.63" width="1.7" height="1.7"/><rect id="Rectangle_122" data-name="Rectangle 122" class="cls-1" x="17.01" y="63.63" width="1.7" height="1.7"/><rect id="Rectangle_123" data-name="Rectangle 123" class="cls-1" x="52.96" y="63.63" width="1.7" height="1.7"/><rect id="Rectangle_124" data-name="Rectangle 124" class="cls-1" x="52.96" y="65.58" width="1.7" height="1.7"/><rect id="Rectangle_125" data-name="Rectangle 125" class="cls-1" x="52.96" y="67.53" width="1.7" height="1.7"/><rect id="Rectangle_126" data-name="Rectangle 126" class="cls-1" x="52.96" y="69.47" width="1.7" height="1.7"/><rect id="Rectangle_127" data-name="Rectangle 127" class="cls-1" x="52.96" y="71.42" width="1.7" height="1.7"/><rect id="Rectangle_128" data-name="Rectangle 128" class="cls-1" x="52.96" y="73.37" width="1.7" height="1.7"/><rect id="Rectangle_129" data-name="Rectangle 129" class="cls-1" x="60.78" y="65.58" width="1.7" height="1.7"/><rect id="Rectangle_130" data-name="Rectangle 130" class="cls-1" x="60.78" y="67.53" width="1.7" height="1.7"/><rect id="Rectangle_131" data-name="Rectangle 131" class="cls-1" x="60.78" y="69.47" width="1.7" height="1.7"/><rect id="Rectangle_132" data-name="Rectangle 132" class="cls-1" x="60.78" y="71.42" width="1.7" height="1.7"/><rect id="Rectangle_133" data-name="Rectangle 133" class="cls-1" x="60.78" y="73.37" width="1.7" height="1.7"/><rect id="Rectangle_134" data-name="Rectangle 134" class="cls-1" x="52.96" y="75.31" width="1.7" height="1.7"/><rect id="Rectangle_135" data-name="Rectangle 135" class="cls-1" x="54.92" y="75.31" width="1.7" height="1.7"/><rect id="Rectangle_136" data-name="Rectangle 136" class="cls-1" x="56.87" y="75.31" width="1.7" height="1.7"/><rect id="Rectangle_137" data-name="Rectangle 137" class="cls-1" x="58.83" y="75.31" width="1.7" height="1.7"/><rect id="Rectangle_138" data-name="Rectangle 138" class="cls-1" x="54.92" y="63.63" width="1.7" height="1.7"/><rect id="Rectangle_139" data-name="Rectangle 139" class="cls-1" x="56.87" y="63.63" width="1.7" height="1.7"/><rect id="Rectangle_140" data-name="Rectangle 140" class="cls-1" x="58.83" y="63.63" width="1.7" height="1.7"/><rect id="Rectangle_141" data-name="Rectangle 141" class="cls-1" x="86.53" y="63.63" width="1.7" height="1.7"/><rect id="Rectangle_142" data-name="Rectangle 142" class="cls-1" x="94.35" y="63.63" width="1.7" height="1.7"/><rect id="Rectangle_143" data-name="Rectangle 143" class="cls-1" x="86.53" y="65.58" width="1.7" height="1.7"/><rect id="Rectangle_144" data-name="Rectangle 144" class="cls-1" x="86.53" y="67.53" width="1.7" height="1.7"/><rect id="Rectangle_145" data-name="Rectangle 145" class="cls-1" x="86.53" y="69.47" width="1.7" height="1.7"/><rect id="Rectangle_146" data-name="Rectangle 146" class="cls-1" x="86.53" y="71.42" width="1.7" height="1.7"/><rect id="Rectangle_147" data-name="Rectangle 147" class="cls-1" x="86.53" y="73.37" width="1.7" height="1.7"/><rect id="Rectangle_148" data-name="Rectangle 148" class="cls-1" x="94.35" y="65.58" width="1.7" height="1.7"/><rect id="Rectangle_149" data-name="Rectangle 149" class="cls-1" x="94.35" y="67.53" width="1.7" height="1.7"/><rect id="Rectangle_150" data-name="Rectangle 150" class="cls-1" x="94.35" y="69.47" width="1.7" height="1.7"/><rect id="Rectangle_151" data-name="Rectangle 151" class="cls-1" x="94.35" y="71.42" width="1.7" height="1.7"/><rect id="Rectangle_152" data-name="Rectangle 152" class="cls-1" x="94.35" y="73.37" width="1.7" height="1.7"/><rect id="Rectangle_153" data-name="Rectangle 153" class="cls-1" x="86.53" y="75.31" width="1.7" height="1.7"/><rect id="Rectangle_154" data-name="Rectangle 154" class="cls-1" x="94.35" y="75.31" width="1.7" height="1.7"/><rect id="Rectangle_155" data-name="Rectangle 155" class="cls-1" x="88.48" y="69.47" width="1.7" height="1.7"/><rect id="Rectangle_156" data-name="Rectangle 156" class="cls-1" x="90.44" y="69.47" width="1.7" height="1.7"/><rect id="Rectangle_157" data-name="Rectangle 157" class="cls-1" x="92.39" y="69.47" width="1.7" height="1.7"/><rect id="Rectangle_158" data-name="Rectangle 158" class="cls-1" x="75.35" y="65.58" width="1.7" height="1.7"/><rect id="Rectangle_159" data-name="Rectangle 159" class="cls-1" x="75.35" y="67.53" width="1.7" height="1.7"/><rect id="Rectangle_160" data-name="Rectangle 160" class="cls-1" x="83.18" y="63.63" width="1.7" height="1.7"/><rect id="Rectangle_161" data-name="Rectangle 161" class="cls-1" x="83.18" y="71.42" width="1.7" height="1.7"/><rect id="Rectangle_162" data-name="Rectangle 162" class="cls-1" x="83.18" y="73.37" width="1.7" height="1.7"/><rect id="Rectangle_163" data-name="Rectangle 163" class="cls-1" x="75.35" y="75.31" width="1.7" height="1.7"/><rect id="Rectangle_164" data-name="Rectangle 164" class="cls-1" x="77.31" y="75.31" width="1.7" height="1.7"/><rect id="Rectangle_165" data-name="Rectangle 165" class="cls-1" x="79.26" y="75.31" width="1.7" height="1.7"/><rect id="Rectangle_166" data-name="Rectangle 166" class="cls-1" x="81.22" y="75.31" width="1.7" height="1.7"/><rect id="Rectangle_167" data-name="Rectangle 167" class="cls-1" x="77.31" y="63.63" width="1.7" height="1.7"/><rect id="Rectangle_168" data-name="Rectangle 168" class="cls-1" x="79.26" y="63.63" width="1.7" height="1.7"/><rect id="Rectangle_169" data-name="Rectangle 169" class="cls-1" x="81.22" y="63.63" width="1.7" height="1.7"/><rect id="Rectangle_170" data-name="Rectangle 170" class="cls-1" x="77.31" y="69.47" width="1.7" height="1.7"/><rect id="Rectangle_171" data-name="Rectangle 171" class="cls-1" x="79.26" y="69.47" width="1.7" height="1.7"/><rect id="Rectangle_172" data-name="Rectangle 172" class="cls-1" x="81.22" y="69.47" width="1.7" height="1.7"/><rect id="Rectangle_173" data-name="Rectangle 173" class="cls-1" x="71.93" y="75.31" width="1.7" height="1.7"/><rect id="Rectangle_174" data-name="Rectangle 174" class="cls-1" x="64.11" y="65.58" width="1.7" height="1.7"/><rect id="Rectangle_175" data-name="Rectangle 175" class="cls-1" x="64.11" y="67.53" width="1.7" height="1.7"/><rect id="Rectangle_176" data-name="Rectangle 176" class="cls-1" x="64.11" y="69.47" width="1.7" height="1.7"/><rect id="Rectangle_177" data-name="Rectangle 177" class="cls-1" x="64.11" y="71.42" width="1.7" height="1.7"/><rect id="Rectangle_178" data-name="Rectangle 178" class="cls-1" x="64.11" y="73.37" width="1.7" height="1.7"/><rect id="Rectangle_179" data-name="Rectangle 179" class="cls-1" x="71.93" y="65.58" width="1.7" height="1.7"/><rect id="Rectangle_180" data-name="Rectangle 180" class="cls-1" x="71.93" y="67.53" width="1.7" height="1.7"/><rect id="Rectangle_181" data-name="Rectangle 181" class="cls-1" x="71.93" y="69.47" width="1.7" height="1.7"/><rect id="Rectangle_182" data-name="Rectangle 182" class="cls-1" x="71.93" y="71.42" width="1.7" height="1.7"/><rect id="Rectangle_183" data-name="Rectangle 183" class="cls-1" x="71.93" y="73.37" width="1.7" height="1.7"/><rect id="Rectangle_184" data-name="Rectangle 184" class="cls-1" x="64.11" y="75.31" width="1.7" height="1.7"/><rect id="Rectangle_185" data-name="Rectangle 185" class="cls-1" x="66.07" y="71.42" width="1.7" height="1.7"/><rect id="Rectangle_186" data-name="Rectangle 186" class="cls-1" x="68.02" y="71.42" width="1.7" height="1.7"/><rect id="Rectangle_187" data-name="Rectangle 187" class="cls-1" x="69.98" y="71.42" width="1.7" height="1.7"/><rect id="Rectangle_188" data-name="Rectangle 188" class="cls-1" x="66.07" y="63.63" width="1.7" height="1.7"/><rect id="Rectangle_189" data-name="Rectangle 189" class="cls-1" x="68.02" y="63.63" width="1.7" height="1.7"/><rect id="Rectangle_190" data-name="Rectangle 190" class="cls-1" x="69.98" y="63.63" width="1.7" height="1.7"/><rect id="Rectangle_191" data-name="Rectangle 191" class="cls-1" x="41.32" y="75.31" width="1.7" height="1.7"/><rect id="Rectangle_192" data-name="Rectangle 192" class="cls-1" x="33.5" y="65.58" width="1.7" height="1.7"/><rect id="Rectangle_193" data-name="Rectangle 193" class="cls-1" x="33.5" y="67.53" width="1.7" height="1.7"/><rect id="Rectangle_194" data-name="Rectangle 194" class="cls-1" x="33.5" y="69.47" width="1.7" height="1.7"/><rect id="Rectangle_195" data-name="Rectangle 195" class="cls-1" x="33.5" y="71.42" width="1.7" height="1.7"/><rect id="Rectangle_196" data-name="Rectangle 196" class="cls-1" x="33.5" y="73.37" width="1.7" height="1.7"/><rect id="Rectangle_197" data-name="Rectangle 197" class="cls-1" x="41.32" y="65.58" width="1.7" height="1.7"/><rect id="Rectangle_198" data-name="Rectangle 198" class="cls-1" x="41.32" y="67.53" width="1.7" height="1.7"/><rect id="Rectangle_199" data-name="Rectangle 199" class="cls-1" x="41.32" y="69.47" width="1.7" height="1.7"/><rect id="Rectangle_200" data-name="Rectangle 200" class="cls-1" x="41.32" y="71.42" width="1.7" height="1.7"/><rect id="Rectangle_201" data-name="Rectangle 201" class="cls-1" x="41.32" y="73.37" width="1.7" height="1.7"/><rect id="Rectangle_202" data-name="Rectangle 202" class="cls-1" x="33.5" y="75.31" width="1.7" height="1.7"/><rect id="Rectangle_203" data-name="Rectangle 203" class="cls-1" x="35.46" y="71.42" width="1.7" height="1.7"/><rect id="Rectangle_204" data-name="Rectangle 204" class="cls-1" x="37.41" y="71.42" width="1.7" height="1.7"/><rect id="Rectangle_205" data-name="Rectangle 205" class="cls-1" x="39.37" y="71.42" width="1.7" height="1.7"/><rect id="Rectangle_206" data-name="Rectangle 206" class="cls-1" x="35.46" y="63.63" width="1.7" height="1.7"/><rect id="Rectangle_207" data-name="Rectangle 207" class="cls-1" x="37.41" y="63.63" width="1.7" height="1.7"/><rect id="Rectangle_208" data-name="Rectangle 208" class="cls-1" x="39.37" y="63.63" width="1.7" height="1.7"/></g></g></g></svg>