<svg xmlns="http://www.w3.org/2000/svg" viewBox="0 0 158.18 19.34"><defs><style>.cls-1{fill:#c2c5ca;}</style></defs><title>hackernoon-logo</title><g id="Layer_2" data-name="Layer 2"><g id="Layer_1-2" data-name="Layer 1"><g id="Layer_1-2-2" data-name="Layer 1-2"><path id="Path_25" data-name="Path 25" class="cls-1" d="M0,7.35V12H1.55V7.35Z"/><path id="Path_26" data-name="Path 26" class="cls-1" d="M17.39,8.9V7.35H15.84V12h1.55V10.45h1.55V8.9Z"/><path id="Path_27" data-name="Path 27" class="cls-1" d="M1.55,12v3.19H3.14V12Z"/><path id="Path_28" data-name="Path 28" class="cls-1" d="M14.25,12v3.19h1.59V12Z"/><path id="Path_29" data-name="Path 29" class="cls-1" d="M1.55,4.17V7.35H3.14V4.17Z"/><path id="Path_30" data-name="Path 30" class="cls-1" d="M14.25,4.17V7.35h1.59V4.17Z"/><path id="Path_31" data-name="Path 31" class="cls-1" d="M12.86,15.18H11.07v1.39H6.33V15.18H3.14v4.16H14.25V15.18Z"/><path id="Path_32" data-name="Path 32" class="cls-1" d="M12.86,0H3.14V4.17H6.33V2.78H7.84v7.66h1.7V2.78h1.53V4.17h3.18V0Z"/><path id="Path_33" data-name="Path 33" class="cls-1" d="M33.38,4V8.58H26.62V4H24.29V15.39h2.33V10.76h6.76v4.63H35.7V4Z"/><path id="Path_34" data-name="Path 34" class="cls-1" d="M67.41,8.53V4H65.08V15.39h2.33V10.82h4.64V8.53Z"/><rect id="Rectangle_71" data-name="Rectangle 71" class="cls-1" x="72.05" y="6.24" width="2.18" height="2.29"/><rect id="Rectangle_72" data-name="Rectangle 72" class="cls-1" x="72.05" y="10.81" width="2.18" height="2.29"/><rect id="Rectangle_73" data-name="Rectangle 73" class="cls-1" x="74.24" y="13.1" width="2.18" height="2.29"/><rect id="Rectangle_74" data-name="Rectangle 74" class="cls-1" x="101.52" y="13.1" width="2.18" height="2.29"/><rect id="Rectangle_75" data-name="Rectangle 75" class="cls-1" x="74.24" y="3.96" width="2.18" height="2.29"/><path id="Path_35" data-name="Path 35" class="cls-1" d="M47,4H37.9V15.38h2.32V10.76H47v4.62h2.33V4Zm0,2.78v1.8H40.22V6.14H47Z"/><path id="Path_36" data-name="Path 36" class="cls-1" d="M115,4h-9.08V15.39h2.33V6.14H115v9.25h2.33V4Z"/><path id="Path_37" data-name="Path 37" class="cls-1" d="M155.86,4h-9.09V15.39h2.33V6.14h6.76v9.25h2.32V4Z"/><path id="Path_38" data-name="Path 38" class="cls-1" d="M53.83,11.22V6.14h9V4H51.5V15.38H62.84V13.2h-9Z"/><path id="Path_39" data-name="Path 39" class="cls-1" d="M128.54,4h-9V15.38h11.33V4Zm0,2.78V13.2h-6.69V6.14h6.69Z"/><path id="Path_40" data-name="Path 40" class="cls-1" d="M142.14,4h-9V15.38h11.34V4Zm0,2.78V13.2h-6.69V6.14h6.69Z"/><path id="Path_41" data-name="Path 41" class="cls-1" d="M81,8.12v-2h9V4H78.66V15.39H90V13.2H81V10.82h4.65V8.53H81v-.4Z"/><path id="Path_42" data-name="Path 42" class="cls-1" d="M103.7,4H92.36V15.38h2.33V10.81h4.64V13.1h2.19V10.82h2.18V8.53h.07V4Zm-9,4.57V6.14h6.75V8.53Z"/></g></g></g></svg>