<?xml version="1.0" encoding="utf-8"?>
<!-- Generator: Adobe Illustrator 23.1.1, SVG Export Plug-In . SVG Version: 6.00 Build 0)  -->
<svg version="1.1" id="svg3228" xmlns:svg="http://www.w3.org/2000/svg"
	 xmlns="http://www.w3.org/2000/svg" xmlns:xlink="http://www.w3.org/1999/xlink" x="0px" y="0px" viewBox="0 0 688 115"
	 style="enable-background:new 0 0 688 115;" xml:space="preserve">
<style type="text/css">
	.st0{fill:#C2C5CA;}
</style>
<g id="g2868">
	<g id="g2874" transform="translate(718.5082,33.5419)">
		<path id="path2876" class="st0" d="M-290.8,47.3c0,12.4,0.4,12.7,11.7,12.7h37.4c1.6,0,2.9,1.3,2.9,2.9v9.4c0,2.1-0.7,2.8-2.9,3.1
			c-4.8,0.7-14.4,2.1-32,2.1c-24.6,0-37.6,0.2-37.6-30.3V0.5c0-30.5,13-30.3,37.6-30.3c17.6,0,27.2,1.3,32,2.1
			c2.2,0.3,2.9,1,2.9,3.1v9.4c0,1.6-1.3,3-2.9,3h-37.4c-11.2,0-11.7,0.3-11.7,12.7v13.5h47.3c1.7,0,2.9,1.4,2.9,3v10.7
			c0,1.6-1.3,3-2.9,3h-47.3L-290.8,47.3L-290.8,47.3z M-72.2,77.7c-13.1,0-26.3-2.2-33.4-3.9c-1.4-0.3-2.8-1.3-2.8-2.9V60.2
			c0-1.6,1.4-2.8,2.8-2.8h0.3c5.9,0.7,19.8,2.7,33.4,2.7c13.1,0,17.1-4.7,17.1-13.3c0-11.1-26.4-17.2-39.4-22.5
			c-12.8-5.3-17.4-15.5-17.4-25.9c0-16.3,13.1-28.1,40.6-28.1c14.1,0,27,2.7,32,3.9c1.5,0.3,2.6,1.3,2.6,2.8v10.9
			c0,1.5-1,2.6-2.5,2.6h-0.3c-9.7-0.9-19.9-2.7-32.7-2.7c-11,0-19.2,3.8-19.2,10.5c0,4.9,5.6,9.3,12.1,11.9c6.6,2.6,15.2,5.9,25,9.9
			c12.4,5,20.5,12.4,20.5,26.5C-33.4,61.7-42.7,77.7-72.2,77.7 M-150.8,3.7c0-11.1-8.6-15.8-23.4-15.8c-3.1,0-16.5,0.3-19.2,0.6v32
			c2.4,0.2,16.7,0.5,19.2,0.5c15.2,0,23.4-2.9,23.4-15.9V3.7z M-128.6,76.4h-18.1c-1.6,0-2.2-1.5-2.9-3l-21.3-35.8h-3.3
			c-3.8,0-15.8-0.4-19.2-0.6v36.4c0,1.6-1.2,3-2.8,3H-211c-1.6,0-3-1.3-3-3v-96.8c0-3,1.8-4,4.7-4.4c7.7-1.2,24.2-1.9,35-1.9
			c22.8,0,43.8,8.1,43.8,33.4V5c0,15.7-7.9,24.2-20,28.9l23.2,39.5c0.3,0.5,0.3,0.9,0.3,1.2C-126.9,75.7-127.5,76.4-128.6,76.4
			 M-329.3-11.4h-29.5v84.9c0,1.6-1.4,3-3,3h-14.6c-1.6,0-3-1.3-3-3v-84.9h-29.5c-1.6,0-2.9-1-2.9-2.6v-11.7c0-1.6,1.3-2.8,2.9-2.8
			h79.6c1.6,0,2.9,1.2,2.9,2.8v11.7C-326.4-12.4-327.7-11.4-329.3-11.4 M-470.8,77.6c-23.8,0-44.3-10.3-44.3-41.8v-61.5
			c0-1.6,1.3-2.8,3-2.8h14.6c1.7,0,3,1.2,3,2.8v61.5c0,16.9,7.8,24.8,23.7,24.8c16,0,23.8-8,23.8-24.8v-61.5c0-1.6,1.3-2.8,2.9-2.8
			h14.6c1.6,0,3,1.2,3,2.8v61.5C-426.5,67.3-447,77.6-470.8,77.6 M-589.2,47.3c0,12.4,0.5,12.7,11.7,12.7h37.4c1.6,0,3,1.3,3,2.9
			v9.4c0,2.1-0.8,2.8-3,3.1c-4.7,0.7-14.4,2.1-31.9,2.1c-24.5,0-37.5,0.2-37.5-30.3V0.5c0-30.5,13-30.3,37.5-30.3
			c17.6,0,27.2,1.3,31.9,2.1c2.2,0.3,3,1,3,3.1v9.4c0,1.6-1.3,3-3,3h-37.4c-11.2,0-11.7,0.3-11.7,12.7v13.5h47.3c1.6,0,3,1.4,3,3
			v10.7c0,1.6-1.3,3-3,3h-47.3V47.3z M-652.6,3.7c0-11.1-8.6-15.8-23.4-15.8c-3.1,0-16.6,0.3-19.2,0.6v32c2.3,0.2,16.7,0.5,19.2,0.5
			c15.2,0,23.4-2.9,23.4-15.9V3.7z M-630.4,76.4h-18c-1.6,0-2.2-1.5-2.9-3l-21.3-35.8h-3.2c-3.9,0-15.8-0.4-19.2-0.6v36.4
			c0,1.6-1.2,3-2.8,3h-14.8c-1.6,0-2.9-1.3-2.9-3v-96.8c0-3,1.8-4,4.7-4.4c7.7-1.2,24.2-1.9,35-1.9c22.8,0,43.8,8.1,43.8,33.4V5
			c0,15.7-7.8,24.2-20,28.9l23.2,39.5c0.3,0.5,0.3,0.9,0.3,1.2C-628.6,75.7-629.2,76.4-630.4,76.4"/>
	</g>
</g>
</svg>
