<svg xmlns="http://www.w3.org/2000/svg" viewBox="0 0 599.9 85.8"><defs><style>.cls-1{fill:#c2c5ca;}</style></defs><title>techcrunch</title><g id="Layer_2" data-name="Layer 2"><g id="layer"><g id="Page-1"><g id="tc"><polygon id="Fill-1" class="cls-1" points="112.1 28.6 168.2 28.6 168.2 0 112.1 0 112.1 28.6"/><polyline id="Fill-2" class="cls-1" points="0 0 0 28.6 28 28.6 28 85.8 56 85.8 56 28.6 84.1 28.6 84.1 0 0 0"/><polyline id="Fill-3" class="cls-1" points="84.1 85.8 168.2 85.8 168.2 57.2 112.1 57.2 112.1 28.6 84.1 28.6 84.1 85.8"/><polyline id="Fill-4" class="cls-1" points="239.7 21.6 198.5 21.6 198.5 33.5 212.3 33.5 212.3 70.8 225.9 70.8 225.9 33.5 239.7 33.5 239.7 21.6"/><path id="Fill-5" class="cls-1" d="M255.2,33.1c-9.7,0-16.9,6.5-16.9,19.3,0,11.3,6.1,19.2,17.2,19.2a28,28,0,0,0,15-4.2l-4.8-8.1a19.31,19.31,0,0,1-9.6,2.6c-3.4,0-5.8-1.8-6.3-5.9h21.7a17,17,0,0,0,.1-2.5C271.7,39.8,265.4,33.1,255.2,33.1Zm-5.2,15c.4-3.7,2-5.6,4.9-5.6,3.7,0,5,1.9,5.6,5.6Z"/><path id="Fill-6" class="cls-1" d="M295.7,61.3c-3.4,0-5.2-3-5.2-8.9s1.6-9.1,4.9-9.1c2.7,0,3.9,1.5,5.7,4.8l8.7-6.6c-3.2-5.2-7.2-8.4-14.2-8.4-11.8,0-17.6,7.8-17.6,19.1,0,12.4,6.5,19.3,17.3,19.3,6.5,0,10.5-2.5,14.8-8.8l-8-6.3c-2.4,3.6-4,4.9-6.4,4.9"/><path id="Fill-7" class="cls-1" d="M339.3,33.1a14.35,14.35,0,0,0-9.3,3.2V19.6l-12.7,5.1V70.9H330V49.8c0-4.6,1.6-5.9,4.3-5.9s4.2,1.3,4.2,6v21h12.7V48.3c0-9.7-3.9-15.2-11.9-15.2"/><path id="Fill-8" class="cls-1" d="M381.7,59.7c-5.9,0-8.3-6-8.3-13.5,0-7.8,2.5-13.5,8.2-13.5,4.5,0,6.2,2.9,7.9,7.5l12.4-4.9c-3.4-9.3-8.2-14.5-20.3-14.5-13.2,0-22.5,9.6-22.5,25.4,0,14.6,7.8,25.4,22.4,25.4,11.7,0,17.2-6.3,20.5-12.7l-11.5-6.1c-2.7,4.6-4.5,6.9-8.8,6.9"/><path id="Fill-9" class="cls-1" d="M422.4,36.6V33.9H409.7V70.8h12.7V50.7c0-4.5,1.9-6,5-6,2.5,0,4.3,1.3,5.9,3.1l3-13.1a11,11,0,0,0-6-1.6,10.79,10.79,0,0,0-7.9,3.5"/><path id="Fill-10" class="cls-1" d="M463.4,55c0,4.6-1.6,5.9-4.2,5.9s-4.2-1.3-4.2-6v-21H442.3V56.5c0,9.7,3.9,15.1,12,15.1a14.05,14.05,0,0,0,9.2-3.2v2.5h12.7V34H463.5V55"/><path id="Fill-11" class="cls-1" d="M507.3,33.1a14.35,14.35,0,0,0-9.3,3.2V33.8H485.3V70.7H498V49.6c0-4.6,1.6-5.9,4.3-5.9s4.2,1.3,4.2,6v21h12.7V48.1c0-9.5-3.8-15-11.9-15"/><path id="Fill-12" class="cls-1" d="M544.4,61.3c-3.4,0-5.2-3-5.2-8.9s1.6-9.1,4.8-9.1c2.7,0,3.9,1.5,5.7,4.8l8.7-6.6c-3.2-5.2-7.2-8.4-14.2-8.4-11.8,0-17.6,7.8-17.6,19.1,0,12.4,6.5,19.3,17.3,19.3,6.5,0,10.5-2.5,14.8-8.8l-8-6.3c-2.2,3.6-3.9,4.9-6.3,4.9"/><path id="Fill-13" class="cls-1" d="M588,33.1a14.35,14.35,0,0,0-9.3,3.2V19.6L566,24.7V70.9h12.7V49.8c0-4.6,1.6-5.9,4.3-5.9s4.2,1.3,4.2,6v21h12.7V48.3c.1-9.7-3.8-15.2-11.9-15.2"/></g></g></g></g></svg>