<svg xmlns="http://www.w3.org/2000/svg" viewBox="0 0 494.96 181.31"><defs><style>.cls-1{fill:#c2c5ca;}</style></defs><title>yahoof</title><g id="Layer_2" data-name="Layer 2"><g id="layer"><path class="cls-1" d="M204.1,0V40.59c.4-.07.53-.39.72-.61,5.77-6.55,13.19-8.82,21.66-8.2a23.5,23.5,0,0,1,15.12,6.46,27,27,0,0,1,7.42,14A40.5,40.5,0,0,1,250,61q0,23.57,0,47.14c0,.69-.12.93-.88.93q-12.49,0-25,0c-.84,0-.92-.3-.92-1q0-19.92,0-39.85a18.62,18.62,0,0,0-.69-5.66c-1.14-3.71-3.72-5.93-7.24-6.23-4.37-.37-7.64,1.3-9.45,4.85a14.5,14.5,0,0,0-1.56,6.64q0,12.06,0,24.11c0,5.41,0,10.82,0,16.23,0,.73-.18.91-.91.91q-12.45,0-24.9,0c-.83,0-1-.24-1-1q0-53.4,0-106.81c0-.42,0-.84-.06-1.26Z"/><path class="cls-1" d="M0,33.44l25.09,0h1.85c2.08,0,2.07,0,2.82,1.94q8.19,21,16.39,42a1.54,1.54,0,0,0,.23.32c1.07-2.68,2.11-5.29,3.14-7.9q7-17.79,14-35.59a.94.94,0,0,1,1-.74q13.32,0,26.65,0c.81,0,.79.21.53.85q-11.65,28-23.26,56Q59,113.15,49.56,136a1.53,1.53,0,0,1-1.68,1.13q-13.08-.06-26.17,0c-.95,0-1-.21-.64-1,3.65-8.56,7.26-17.13,10.9-25.69a1.75,1.75,0,0,0,0-1.53Q20.6,82.13,9.24,55.32,4.9,45.11.57,34.89A2.29,2.29,0,0,0,0,33.83Z"/><path class="cls-1" d="M495,0q-10.35,25-20.71,50c-2.43,5.88-4.88,11.75-7.29,17.64a1.15,1.15,0,0,1-1.27.85q-14.88,0-29.75,0c-.86,0-1.05-.11-.7-1q14-33.77,28-67.54Z"/><path class="cls-1" d="M142.8,40.55c0-2.29,0-4.29,0-6.3,0-.65.19-.8.82-.79q12.1,0,24.21,0c.63,0,.92.14.83.79a3.87,3.87,0,0,0,0,.59q0,36.52,0,73.07c0,1-.28,1.2-1.23,1.19-7.91,0-15.82,0-23.73,0-.69,0-.94-.11-.92-.87.07-2,0-4,0-6.12-.49.56-.86,1-1.26,1.44a22.93,22.93,0,0,1-12.89,6.87c-14.74,2.76-29.05-4-36.65-17.27a43,43,0,0,1-5.44-25.87A40.22,40.22,0,0,1,97.29,42.78a33.49,33.49,0,0,1,21.89-10.93,28.7,28.7,0,0,1,18.26,3.94A20.44,20.44,0,0,1,142.8,40.55ZM112.18,71.39a15.61,15.61,0,1,0,15.58-15.57A15.34,15.34,0,0,0,112.18,71.39Z"/><path class="cls-1" d="M421.94,71.71c-.21,11.26-4.15,21.17-12.73,29a38.6,38.6,0,0,1-19.9,9.61,42.22,42.22,0,0,1-25.63-3.08c-12.23-5.73-19.64-15.34-22-28.62a39.31,39.31,0,0,1,5.25-28.53,37.64,37.64,0,0,1,24.65-17.31c11-2.48,21.61-1.2,31.39,4.59,10.16,6,16.17,15,18.32,26.61A49.48,49.48,0,0,1,421.94,71.71ZM381.4,86.57c8.64,0,15.1-6.51,15.13-15.31a15.08,15.08,0,0,0-30.16-.1C366.33,79.93,372.77,86.54,381.4,86.57Z"/><path class="cls-1" d="M255.53,71.09c.19-11.33,4.13-21.27,12.75-29.14a38.77,38.77,0,0,1,20.79-9.73c10.34-1.55,20.16,0,29.11,5.57a37,37,0,0,1,17.65,26.42c2,12.21-.57,23.37-8.62,33a38.24,38.24,0,0,1-23.63,13.22,42,42,0,0,1-25.15-3.05C266.1,101.64,258.72,92,256.2,78.65c-.15-.76-.25-1.53-.36-2.3C255.62,74.68,255.6,73,255.53,71.09Zm40.39,15.47A14.84,14.84,0,0,0,311.1,71.7c.06-8.83-6.31-15.48-14.89-15.54a14.81,14.81,0,0,0-15.27,15A14.82,14.82,0,0,0,295.92,86.56Z"/><path class="cls-1" d="M316.15,175.52a14.24,14.24,0,0,1-8.82,5.28c-7.67,1.35-14-1.07-18.85-7.13a23.43,23.43,0,0,1-4.88-15.14,24,24,0,0,1,5.61-15.95c5.58-6.62,15.69-8.64,22.84-4.56a14.05,14.05,0,0,1,4.11,3.59v-3.28c0-1.23,0-1.23,1.27-1.23,4.41,0,8.82,0,13.23,0,.78,0,1,.22,1,1q0,14.13,0,28.28c0,4.21,0,8.42,0,12.64,0,.88-.24,1.05-1.08,1.05-4.44-.05-8.88,0-13.33,0-.81,0-1.17-.14-1.09-1.05C316.22,177.92,316.15,176.84,316.15,175.52Zm-8.41-8.33a8.65,8.65,0,1,0,.09-17.29,8.65,8.65,0,1,0-.09,17.29Z"/><path class="cls-1" d="M252.74,141.6a17.92,17.92,0,0,1,4.58-3.95,14.55,14.55,0,0,1,21.47,10.06,25.11,25.11,0,0,1,.53,5.11c0,8.72,0,17.43,0,26.15,0,.86-.23,1.06-1.08,1.06q-6.81-.08-13.62,0c-.88,0-1.05-.25-1.05-1.08,0-7.32,0-14.65,0-22a10.5,10.5,0,0,0-.52-3.43,4.78,4.78,0,0,0-4.51-3.39,5.13,5.13,0,0,0-4.9,2.73,8.9,8.9,0,0,0-1,4.21c0,7.26,0,14.52,0,21.77,0,1-.25,1.17-1.18,1.16-4.57-.05-9.14,0-13.71,0-.67,0-.89-.14-.89-.84q0-20.61,0-41.21c0-.67.16-.89.86-.88q7,0,14,0c.76,0,.93.24.9.94C252.7,139.22,252.74,140.41,252.74,141.6Z"/><path class="cls-1" d="M380.15,180l-10.69.05c-1.27,0-2.54-.05-3.8,0-.8,0-1-.19-1-1,0-7.35,0-14.71,0-22.06a9.08,9.08,0,0,0-.67-3.89,4.68,4.68,0,0,0-4.47-2.87,4.9,4.9,0,0,0-4.68,2.56,6.79,6.79,0,0,0-.95,3.33c0,5.38-.05,10.75-.06,16.13,0,2.3,0,4.6,0,6.9,0,.71-.18.92-.93.91q-6.86-.06-13.71,0c-.84,0-1.08-.16-1.08-1q0-20.11,0-40.24c0-1.63,0-1.63,1.63-1.63,4.38,0,8.75,0,13.13,0,.7,0,1,.12.93.9-.08,1.21,0,2.43,0,3.84,5-6.22,11.2-7.35,18-4.57,5.72,2.32,7.91,7.3,8.37,13.17a.64.64,0,0,1,.06.18q0,11.73-.05,23.46C380.21,176,380.17,178,380.15,180Z"/><path class="cls-1" d="M450.76,162.52c-4.6,0-9.21,0-13.81,0-.81,0-.95.18-.78,1a7.26,7.26,0,0,0,6.45,5.46c3.13.3,5.85-.47,7.88-3a.7.7,0,0,1,.92-.24c4.07,1.58,8.14,3.16,12.22,4.71.79.3.34.69.13,1a19,19,0,0,1-8.43,7.4c-7.67,3.28-15.46,3.46-23.06-.08-6.71-3.13-10.16-8.79-11.23-16a23.67,23.67,0,0,1,2.16-14.64,21.5,21.5,0,0,1,16.24-11.82A22.86,22.86,0,0,1,455.38,139c5.47,3.23,8.5,8.18,9.81,14.28a31.94,31.94,0,0,1,.56,8.11c0,.82-.26,1.15-1.18,1.13C460,162.49,455.36,162.52,450.76,162.52Zm-7.45-8.94h5.14c2.41,0,2.59-.34,1.36-2.51-.08-.14-.18-.27-.27-.41a7.81,7.81,0,0,0-8.35-2.61,6.41,6.41,0,0,0-4.91,4.59c-.19.65-.13,1,.72,1C439.1,153.54,441.2,153.58,443.31,153.58Z"/><path class="cls-1" d="M183.26,164.85c0-4.72,0-9.45,0-14.18,0-.76-.17-1-1-1-1.39.07-2.79,0-4.18,0-.51,0-.66-.16-.66-.67q0-5.59,0-11.17c0-.6.19-.81.78-.79,1.2,0,2.4,0,3.6,0,1.68,0,1.41.15,1.41-1.37a22.56,22.56,0,0,1,1.79-9.36c2.45-5.5,6.8-8.6,12.62-9.7a22.63,22.63,0,0,1,11.14.49,1.49,1.49,0,0,1,1.25,1.7c-.06,3.49,0,7,0,10.49,0,1.18-.07,1.18-1.21.84-2.45-.75-4.9-1-7.24.35a6.44,6.44,0,0,0-2.73,6.16c.12.55.52.4.84.4,2.88,0,5.77,0,8.65,0,.77,0,1.08.14,1.07,1,0,3.6,0,7.19,0,10.79,0,.69-.2.87-.87.86-2.82,0-5.64,0-8.46,0-1,0-1.25.18-1.25,1.2,0,9.29,0,18.59,0,27.88,0,1.44.15,1.22-1.25,1.22-4.44,0-8.88,0-13.32,0-.92,0-1-.29-1-1.09C183.28,174.25,183.26,169.55,183.26,164.85Z"/><path class="cls-1" d="M417.88,152.41a14.38,14.38,0,0,0-5.62-2.23c-3.37-.46-6.57-.07-9.17,2.36A8,8,0,0,0,400.9,161c.87,3.19,3.21,5,6.35,5.77a12.64,12.64,0,0,0,9.61-1.6l.82-.49c.34.25.2.56.2.82,0,4.15,0,8.3,0,12.44a1.1,1.1,0,0,1-.72,1.18c-8.58,4.06-20.08,2-26.61-4.76a21.32,21.32,0,0,1-5.75-13,23.76,23.76,0,0,1,2-12.88c3.12-6.62,8.44-10.5,15.51-12a24.44,24.44,0,0,1,14.58,1.22,1.34,1.34,0,0,1,1,1.47C417.86,143.53,417.88,147.87,417.88,152.41Z"/><path class="cls-1" d="M443.25,75.13A17.07,17.07,0,0,1,460.54,92c.08,10.24-7.62,18.32-17.54,18.39S425.24,103,425.22,93.1A17.89,17.89,0,0,1,443.25,75.13Z"/><path class="cls-1" d="M214.8,158.53c0-6.8,0-13.6,0-20.4,0-.78.15-1,1-1,4.57,0,9.14,0,13.71,0,.77,0,1.06.17,1,1q0,20.46,0,40.91c0,.81-.22,1-1,1q-6.81-.06-13.61,0c-.85,0-1.14-.16-1.13-1.09C214.82,172.13,214.8,165.33,214.8,158.53Z"/><path class="cls-1" d="M222.58,133.19a8.66,8.66,0,1,1,8.91-8.65A8.79,8.79,0,0,1,222.58,133.19Z"/><path class="cls-1" d="M380.15,180c0-2,.06-3.92.06-5.88q0-11.73.05-23.46a.64.64,0,0,0-.06-.18c.05.61.14,1.22.14,1.83q0,13.41,0,26.83C380.33,179.37,380.53,179.73,380.15,180Z"/></g></g></svg>